<?xml version="1.0" encoding="utf-8"?>
<!DOCTYPE svg PUBLIC "-//W3C//DTD SVG 1.1//EN" "http://www.w3.org/Graphics/SVG/1.1/DTD/svg11.dtd">
<svg version="1.1"
		 id="Layer_1"
		 xmlns="http://www.w3.org/2000/svg"
		 xmlns:xlink="http://www.w3.org/1999/xlink"
		 x="0px"
		 y="0px"
	 	 viewBox="0 0 1920 1920"
	 	 enable-background="new 0 0 1920 1920"
	 	 xml:space="preserve">
<g>
	<linearGradient id="SVGID_1_" gradientUnits="userSpaceOnUse" x1="960" y1="1920" x2="960" y2="-4.310004e-008">
		<stop  offset="0" style="stop-color:#F8DEBF"/>
		<stop  offset="7.340387e-002" style="stop-color:#F7DCBB"/>
		<stop  offset="0.1511" style="stop-color:#F5D5AE"/>
		<stop  offset="0.2309" style="stop-color:#F2CA99"/>
		<stop  offset="0.3119" style="stop-color:#EDBB7B"/>
		<stop  offset="0.3941" style="stop-color:#E7A755"/>
		<stop  offset="0.476" style="stop-color:#DF8F27"/>
		<stop  offset="0.5" style="stop-color:#DD8718"/>
		<stop  offset="0.5534" style="stop-color:#E19533"/>
		<stop  offset="0.6617" style="stop-color:#E9AF65"/>
		<stop  offset="0.7639" style="stop-color:#F0C38C"/>
		<stop  offset="0.8574" style="stop-color:#F4D2A8"/>
		<stop  offset="0.9391" style="stop-color:#F7DBB9"/>
		<stop  offset="1" style="stop-color:#F8DEBF"/>
	</linearGradient>
	<rect fill="url(#SVGID_1_)" width="1920" height="1920"/>
	<g id="_x23_000000ff">
		<path stroke="#000000" stroke-width="9.375000e-002" d="M0,0h21c-0.2,8.2-0.9,16.4-2.2,24.5c-0.9,4-1.6,8.5-4.8,11.4
			c-4.2,4.2-9.3,7.3-14,11V0z"/>
		<path stroke="#000000" stroke-width="9.375000e-002" d="M104.6,0h65.1c-4,15.2-9.1,30.1-13.9,45c-10.7,33-21.2,66-31.6,99
			c-4.9,14.9-9.4,29.9-14.1,44.8c-3.5,11.6-7.5,23.1-10.3,34.9c-2.3,9-4.6,18.1-6.7,27.1c-3.7,12.9-8.1,25.5-11.4,38.5
			c-1.3,4.6-2.1,9.2-3.5,13.8c-2.7-2.2-2.6-6-3.6-9c-2-10.6-6.4-20.6-8.7-31.1c-1.5-7-3.9-13.9-4.5-21c-1.6-13.4-3.1-26.9-4.6-40.3
			c-1.5-16.9,0.2-34.1,4.7-50.5c1.4-5.1,3.2-10.2,4.4-15.3c1.4-5.7,3.4-11.3,5-17C82.8,79.4,93.6,39.6,104.6,0z"/>
		<path stroke="#000000" stroke-width="9.375000e-002" d="M299.6,0h39.8c-2.1,13.7-2.8,27.6-6.3,41c-2,10.4-5.1,21.3-1.7,31.8
			c-4.1-2-6.9-5.8-9.5-9.5c-5.3-11.4-11.6-22.5-14.5-34.8C304.5,19,301.9,9.6,299.6,0z"/>
		<path stroke="#000000" stroke-width="9.375000e-002" d="M497,0h43.9c5.8,18,10.7,36.2,15.5,54.5c6,22.7,10.5,45.7,15,68.7
			c3.7,19.7,5,39.8,4.7,59.8c-0.2,12.8,0.8,25.8-1.7,38.4c-1.6,8.1-3.6,16.1-6.6,23.7c-3.2,8.7-7.6,16.8-11.7,25.1
			c-9.5,19.2-19.5,38.2-29.7,57c-10,18.5-20.5,36.7-29.5,55.7c-9.9,20.6-17.8,42.1-26.4,63.3c-7.9,19.2-14.4,39-18.8,59.3
			c-4.2,20.2-8.3,40.4-12.5,60.6c-4.4,20-11.5,39.3-20.4,57.6c-8.1,17.6-17.6,34.5-28.6,50.4c-9.5,13.6-19.7,26.8-27.1,41.8
			c-9.8,18.2-14.8,38.3-21.2,57.9c-3.4,10.2-6.5,20.6-10.2,30.7c-4.3,12.4-9.6,24.5-11.7,37.5c-2.3,11.9-3,24.1-4,36.2
			c-1.6,20.3-3.3,40.6-5,60.8c-1.3,16-2.9,32-2.6,48c-0.1,15.1,1.5,30,2.7,45c1.1,15.2,4.4,30.2,9.6,44.5
			c3.8,10.8,9.1,21.1,13.6,31.6c4.7,11.1,7.8,22.9,8.6,34.9c1.3,11.3-1.4,22.6-1.2,34c0,14.3-2.7,28.8,0.5,43
			c2.4,11.4,5.7,22.7,8.5,34.1c2,9.3,3.6,18.7,5.7,28c4.6,18.7,13.7,36.1,24.9,51.6c22.8,31.6,45.6,63.1,68.4,94.7
			c21,29.3,43.3,57.8,62.5,88.3c9.9,15.2,19.5,30.5,29.5,45.6c11.7,16.6,26.1,31.3,41.7,44.2c20.8,16.7,39.5,35.8,57,55.8
			c12.5,13.2,23,28.8,27.7,46.5c2.3,8.2,2.4,16.8,3.2,25.2c1.7,19.7,2.3,39.7,7.4,58.9c4.8,19.5,13,37.9,19.9,56.7
			c8.9,23.5,17.7,47,26.7,70.4h-76.7c-2.3-24.6-6.7-49-12.7-73c-3.6-16-7.7-31.9-14.4-46.9c-7.7-18-18.4-34.6-27.9-51.7
			c-10.4-18.2-20.8-36.4-31-54.6c-18-34-41.3-64.7-62.9-96.4c-21.3-31.2-39.1-64.6-60-96c-21.4-32.3-43.4-64.3-67.1-94.9
			c-10.5-13.5-20.5-27.5-28.7-42.5c-8.2-14.7-14.2-30.5-20.7-46c-9.3-22.8-16.6-46.3-23.2-70c-2.6-9.9-6.3-19.5-7.2-29.8
			c0.6-12.3,0.6-24.7,0.9-37c0.2-24.1-6.7-47.4-12.8-70.4c-3.7-13.5-8-26.9-13-40c-3.6-10.3-8.4-20.2-11.5-30.7
			c-2.8-9.8-4.7-19.8-5.1-30c-0.5-13.4,1.5-26.7,2.2-40c2.4-19.6,6.8-39,12.7-57.8c7.6-28.9,15.1-57.8,22.7-86.6
			c1.8-7.5,4.5-14.7,6.4-22.1c4.6-17.7,9.9-35.2,16-52.5c1.3-3.6,2.9-7.1,3.2-10.9c1.4-12.2,4.7-24.1,7.2-36.1
			c3.9-16.6,6.5-33.7,13.6-49.3c8.7-19.9,21.8-37.6,29.2-58.1c8.9-25.2,15.6-51.6,15.6-78.5c-0.3-26,1.9-51.9,5-77.7
			c2.4-18.7,9.5-36.6,19.3-52.6c10.6-17,21.7-33.6,33.2-50c10.7-15,21.2-30.2,31-45.9c7.7-12.5,15.3-25.2,24-37
			c10.8-14.8,22.6-28.8,32-44.6c3-5.6,6.4-11.1,8.3-17.2c3.7-11.6,5.1-23.9,3.6-36c-0.6-6.1-2.3-12.1-3.5-18.1
			c-3.3-15.3-6.4-30.7-10.5-45.9c-4-15.1-8.8-30-13.8-44.8C503.6,32.5,499.6,16.4,497,0z"/>
		<path stroke="#000000" stroke-width="9.375000e-002" d="M648.7,0h76.6c7.5,18,14.3,36.4,20.5,54.9c10.9,35.5,21.7,71,32.6,106.5
			c2.4,7.3,3.4,15,2.4,22.6c-1.8,14.1-9.6,26.5-18.9,36.9c-15,16.6-28.1,35-36.8,55.7c-6.5,16-11.6,32.5-18.2,48.5
			c-6.9,17.2-15.1,33.8-23.7,50.2c-10.5,20.9-22.3,41.2-31.3,62.8c-6,14.2-10.5,29-14.5,43.9c-6.8,24.1-13.6,48.1-20.3,72.2
			c-5.9,24.1-16.6,46.8-30.8,67.1c-12.9,19.1-25.8,38.1-38.8,57.2c-9,13.5-18.7,26.6-28.8,39.2c-11.5,14.4-24,28-36.1,41.9
			c-33.7,38-66.8,76.6-98.5,116.3c-4.3,6-10.1,10.7-14.6,16.6c-3.2,3.7-5.9,7.8-8.8,11.7c-2.4-6.8-0.7-14.2-0.6-21.2
			c0.1-14,3-27.8,6.5-41.3c3.5-15.8,13.2-29.1,20.9-43.1c9.8-16.6,19.2-33.4,29.1-49.9c10.9-17.3,24.8-32.4,39.7-46.3
			c13.6-12,27.3-24,40.9-36c17.3-16,32.9-35.3,38.8-58.6c7-23,14.1-46,20.6-69.3c6.8-23.8,12.6-47.9,20.4-71.4
			c5.9-18.1,13-35.7,19.6-53.4C611.4,376,628,339,645.5,302.4c7.3-15.3,15-30.4,22.3-45.7c6.6-14.3,14.1-28.2,22-41.8
			c6.6-11.7,10.1-25.7,7-39c-2.1-10.1-8-18.7-13-27.6c-4.5-8.1-9.4-16-13.3-24.4c-6.7-14.2-11.4-29.4-13.1-45
			C654.5,52.6,651.6,26.3,648.7,0z"/>
		<path stroke="#000000" stroke-width="9.375000e-002" d="M1019,0h73.6c9.1,26.1,18,52.3,27,78.5c3.4,9.5,6.3,19.2,10.5,28.4
			c7.4,17,17.4,32.7,28.4,47.5c13,17.5,24.7,36,34.4,55.5c4.5,9.5,9,18.9,13.2,28.5c8.2,18.4,17.2,36.5,23.9,55.5
			c7.9,20.3,9.8,42.4,8.3,64c-2,28.3-1.9,56.7-1.8,85c-0.7,34.2,4.3,68.2,8.7,102.1c2.9,17.8,9.4,34.9,18.2,50.6
			c28.8,51.8,58,103.4,86.7,155.2c11.2,20.7,20.1,42.7,27,65.2c2.6,8.5,5.6,16.9,7.6,25.5c1.8,11.1,4.5,22.1,5,33.4
			c0.6,6,0.4,12.1,0.5,18.1c0,8.2,0.6,16.5-1.5,24.5c-4.7,18.5-9.5,37-14.3,55.5c-5.3,19-13.3,37.2-23.3,54.3
			c-9.6,16.7-19.1,33.4-28.7,50.1c-8.8,15.4-18.7,30.2-29.9,44.1c-2.9,3.8-7.5,6.2-9.5,10.8c-8.6,16.8-18.9,32.8-25.5,50.6
			c-4,10.8-6.7,22.2-7.9,33.7c-1.9,17.9-6.4,35.4-13.2,52c-9.8,24.2-19.6,48.3-29.4,72.5c-4.1,10.4-8.7,20.6-11.3,31.5
			c-5,19.5-4.7,40.2,0.1,59.7c3.3,15,9.3,29.1,15.7,43c9.3,20.7,17.5,41.9,24.5,63.5c7.3,22,14.9,43.8,20.6,66.3
			c2.4,9.2,4.1,18.6,5.6,28c2.4,16.3,5.1,32.5,6.4,48.9c0.6,9.2,2.4,19.1-1.6,27.7c-5.3-2.8-8.4-8-10.7-13.3
			c-6.1-11.7-11.3-23.8-17.2-35.6c-7-16.3-12.7-33-20-49.2c-1.9-4.3-3.9-8.4-5.6-12.7c-6.9-15.8-14.3-31.4-21.3-47.2
			c-10.2-22.7-19.9-45.5-29.8-68.3c-7-16.5-15.2-32.7-19.1-50.3c-3.1-12.4-4.1-25.3-4.2-38c-0.5-11-0.8-22-1.1-33
			c-0.5-14.9-1.5-30,0.2-44.9c2.2-23.1,10.2-45,16-67.3c4.7-18.5,13-36,23.4-51.9c19.6-28.7,40.8-56.3,63.2-82.9
			c13.4-16.2,26.9-32.4,40.7-48.3c15.7-27.5,30.7-55.4,45.9-83.1c8.6-16.1,13.2-34.4,12.1-52.7c-2-25.3-3.5-50.7-5.3-76
			c-0.7-7.8,1.2-16-2.1-23.4c-2.5-6-5.3-11.9-7-18.1c-2.6-8.9-3.7-18.2-7.4-26.7c-6.6-15.8-17.8-29.1-29.9-40.9
			c-14.3-14.7-28.7-29.5-42.2-44.9c-9.6-10.8-19.7-21.5-26.5-34.4c-6.2-11.5-10.1-24.4-9.8-37.6c0.3-21.4-4.3-42.7-12.1-62.6
			c-5.8-15.2-11.2-30.7-13.3-46.8c-2.5-17.1-1.3-34.4-1.6-51.6c0.6-13.7,0.6-27.5,1.6-41.2c0.5-11.3,1.7-22.5,0.7-33.8
			c-1.2-22-5-44.1-13.5-64.6c-6.1-15.7-15.2-30-23.1-44.8c-5.1-9.5-10.1-19.2-15-28.8c-5.6-10.9-11-21.8-16.3-32.8
			c-6.7-14.5-11.8-29.8-14.8-45.5c-2.3-12.6-3.5-25.4-7-37.7c-4.2-15.5-11-30.1-19.2-43.9c-11.9-21.1-23.9-42.1-38-61.8
			C1030.6,22.7,1023.5,12,1019,0z"/>
		<path stroke="#000000" stroke-width="9.375000e-002" d="M1224.2,0h46.1c0.2,8.7,1.9,17.2,2.9,25.9c2.3,19,3.9,38,4.5,57.1
			c0.1,7.6-0.2,15.3-1.5,22.8c-2,15-4.1,30-6.3,44.9c-15.4-25.9-24.5-54.7-35.2-82.6c-3.5-9.8-5.4-20-7.7-30.1
			C1224.3,25.5,1223.4,12.7,1224.2,0z"/>
		<path stroke="#000000" stroke-width="9.375000e-002" d="M1336.4,0h39.7c-0.3,9.3,0.8,18.6,1.3,27.9c1,13.4,2,26.7,2.9,40.1
			c0.9,13.1,0.4,26.2-1.6,39.2c-1.9,13.5-6.2,26.4-8.6,39.8c-4.7,22.2-6.1,44.8-8.1,67.3c-0.6,4.1-0.7,8.3-0.9,12.4
			c-1.4,10-1.1,20.2-1.3,30.3c0.6,28.4,1.7,56.7,2.5,85.1c0.7,10.5,2.5,21.1,6.7,30.9c6.7,15.6,17.8,28.7,25,44
			c9.4,17.9,13.9,37.6,19.4,56.9c3.5,12.4,2.2,25.4,2,38.1c-0.5,12.7-0.8,25.5-3.4,37.9c-5.8-4.3-8.6-11.1-12.2-17.2
			c-4.7-9.2-9.1-18.5-12.9-28c-14.2-28.1-24.8-57.8-35.7-87.2c-2.9-8.1-5.6-16.3-8.3-24.5c-2.1-6.2-5.7-11.7-8.9-17.3
			c-8-17.5-16.6-34.7-24.7-52.1c-7.7-17-13.4-35-16-53.5c-1.7-10.9-3.2-21.8-4.6-32.7c-0.8-14.3,0.4-28.7,3.6-42.6
			c4.5-18.9,8.5-38,13-56.9c2.2-10.6,5.6-20.8,7.8-31.4C1321.9,71.2,1328.9,35.6,1336.4,0z"/>
		<path stroke="#000000" stroke-width="9.375000e-002" d="M1452,0h51.5c-3.5,22.2-4,44.7-5.3,67.1c-2.2,41.4-4.9,82.8-4.3,124.3
			c-0.4,24.5-0.1,49.1-0.2,73.6c0.2,17.4-0.7,34.8,1.7,52.1c2.1,19.1,7.9,37.4,12.5,56c5.7,21,10,42.4,12.5,64
			c3.3,27.6,7.3,55.1,7.9,82.9c0.3,25.4-0.6,50.8,1.8,76c0.9,14.3,4,28.5,3.4,43c-0.4,11.8-2.4,23.4-5.8,34.7
			c-5.6,18-12.9,35.5-15.9,54.1c-2.2,11.6-2.8,23.4-2.6,35.1c0,20.7,0,41.4,0,62.1c-0.2,9.6,0.4,19.3-0.4,28.9
			c-1.3,13-1,26.2-4.2,38.9c-2.1,11.1-5.7,21.8-9,32.5c-0.8,2.4-1.4,5-3.2,6.9c-7.1-22.4-12.4-45.3-16.4-68.4
			c-9-47.3-17.6-94.6-26.4-142c-4-20.1-3.2-41.2,2.5-60.9c8.8-31.8,17.1-63.8,26.1-95.5c2.8-11.3,4.4-22.8,4.5-34.4
			c0.4-9.8-1.5-19.4-2.6-29.1c-5.8-47.7-11.5-95.4-17.4-143c-2.5-21.8-7.2-43.3-13.1-64.4c-6.4-24.7-14.5-49.1-16.6-74.7
			c-0.6-6.3-0.8-12.6-0.7-18.9c0-30.7,0.1-61.3,0.1-92c0.3-15.9,2.1-31.9,5.4-47.5C1442.4,41,1447.2,20.5,1452,0z"/>
		<path stroke="#000000" stroke-width="9.375000e-002" d="M1644.8,0h85.8c-0.6,7.5-2.8,14.9-3.9,22.4c-2.9,16.1-5.4,32.3-7.6,48.5
			c-1.6,12-3.9,23.9-3.7,36c-0.2,9.2,1.1,18.3,2.4,27.4c1.6,10,4.9,19.6,6.6,29.5c5.1,23.4,6.2,47.3,8.1,71.1
			c1.9,25.4,4.1,50.7,6.7,76.1c1.2,12,2.9,24.1,1.5,36.2c-1.2,20.3-9.7,39.1-16.5,57.9c-3.1,8.5-6.3,16.9-9.4,25.4
			c-5.1,14.6-5,31,0.4,45.6c2.2,6.4,5.6,12.3,8.5,18.4c9.9,19.3,17.8,39.6,22.7,60.7c2,8.7,4.2,17.3,6.1,26
			c3.7,16.3,5.3,33.1,4.7,49.8c-1.6,25.7-2.6,51.4-2.4,77.1c-0.2,11.7,0.8,23.5-1.8,35c-3,15.1-9.8,29.2-18.1,42.1
			c-9.1,14.3-17.3,29.4-28.9,41.9c-0.7,1-2.5,2.2-1.5,3.6c9.7,14.6,20.5,28.6,29.1,43.9c15.4,27,25.3,57.4,26.4,88.6
			c0.9,10.6-1,21.4-5.9,30.9c-7,13.3-17.5,24.6-29.3,33.9c-17.5,14.5-34.9,29-52.4,43.6c-12.3,11.3-23.6,24.2-30.6,39.5
			c-3.9,8.3-5.3,17.3-7.7,26c-4.9,20.9-12.2,41.2-21.7,60.4c-1.2,2.4-2.6,4.8-2.7,7.5c-1.3,24.1-3.4,48.1-5.3,72.1
			c-1.6,22.8-3.9,45.5-8.2,67.9c-8.1,42.3-16.3,84.6-24.5,126.9c-6.4,33.9-13.3,67.7-19.4,101.7c-3.6,20.4-6.6,40.8-9.5,61.3
			c-0.6,4.7-1.3,9.4-1.4,14.1c-2,20.9-1,42-1.7,63c-0.1,18.4-2.2,36.8-5.9,54.9c-6.4,31.6-12.8,63.3-19.2,94.9
			c-3.8,19.4-8.2,38.7-11.2,58.2H1452c10.7-46,23.5-91.4,35.3-137.1c4.5-17.9,6.8-36.4,7.2-54.8c0.4-23.4,1.2-46.8,1.4-70.2
			c1.1-14.4,0.2-28.9,1.4-43.3c1.3-13.2,2.7-26.4,5.4-39.4c12.9-58.7,26.1-117.4,39.1-176c2.9-13.3,6.3-26.5,7-40.1
			c1.9-21.8-2.7-43.5-5-65.1c-3.4-24.2-2.9-48.7-0.4-72.9c1.5-15.2,1.1-30.8,6.1-45.4c4.2-12.8,10.9-24.6,19-35.2
			c6.3-8.1,12.4-16.4,18.3-24.8c6.6-11,11.7-22.9,18-34c8-15.2,16.8-30,27.2-43.7c9.2-13,20.7-24.2,29-37.9
			c6.7-10.8,12-22.6,14.4-35.1c1.2-6.3,2.3-12.7,3.4-19c2.3-13.2,1.9-26.8-0.7-39.9c-2.1-11-6.4-21.5-9.8-32.2
			c-6-18.6-13.9-36.6-23.3-53.8c-7.7-13.9-15.7-27.6-23.5-41.4c-8.9-16-18.8-31.5-24.9-48.9c-7.6-20.3-9.3-42.1-11.8-63.4
			c-1.1-11.3-1.1-22.8-1.8-34.2c-0.9-16.8-2.6-33.8,0.7-50.4c6.5,6.9,10.3,15.7,14.8,23.9c5.5,9.4,8,20.1,11.4,30.3
			c3.3,9.8,5.8,20,10.9,29.1c7.8,17.1,19,32.7,23.8,51.1c6.8,26.1,19,50.4,33.2,73.2c7.9-18.9,13.3-38.8,15.3-59.2
			c2.5-27.4,5.1-54.8,7.7-82.1c1-11.3,2.6-22.7,1.8-34c-0.9-15.5-5.7-30.5-12.1-44.5c-9.9-22.8-19.5-45.7-31.3-67.5
			c-7.3-14.4-16.5-28-21.8-43.4c-7.4-19.6-8-40.8-7.9-61.5c0.1-24.3,6.5-47.9,11-71.7c4.2-21.1,8.8-42.1,12.5-63.3
			c2.5-14.9,4.4-29.9,5.7-45c1.2-11,2.4-22,1.8-33.1c-0.4-14.7-3.7-29.2-7.9-43.2c-6.5-23.6-8.9-48.1-11.8-72.3
			c-1.2-10.1-2.8-20.2-2.5-30.4C1638.5,25.1,1640.9,12.3,1644.8,0z"/>
		<path stroke="#000000" stroke-width="9.375000e-002" d="M1900.5,0h19.5v46.5c-4.8-6.4-11.3-11.9-13.4-19.9
			C1904.2,17.8,1902.8,8.8,1900.5,0z"/>
		<path stroke="#000000" stroke-width="9.375000e-002" d="M1803.4,5.4c15.3,14.2,21.9,34.4,29.8,53c4,10,8.9,19.5,12.4,29.7
			c3.5,9.8,6.2,20,7.4,30.3c3.9,22.5,7.4,45,10.2,67.6c3,23.7,6.1,47.4,10.8,70.9c5,25.4,10.7,50.7,15.6,76.2
			c4.4,23.8,6.1,47.9,8,71.9c2.9,36.6,5.9,73.3,8.8,110c1.3,20.3-3.8,40.5-12.7,58.6c-4.9,10.8-9.9,21.5-14.8,32.3
			c-5.2,11.5-7.5,24.6-5.4,37.1c0.9,6.4,3.2,12.6,5.5,18.6c4.8,12.2,7.8,25.2,7.7,38.3c0.2,9.4-1.5,18.6-2.5,27.9
			c-3.5,30.3-7.1,60.6-10.7,90.9c-0.8,8.9-3.9,17.3-5.9,25.9c-1.1,4.8-3.3,9.2-3.6,14.2c-0.8,10.3-0.6,20.7-1.2,31.1
			c-0.9,15.9-0.5,31.9-0.6,47.9c-0.2,11.6-2.9,23-7.8,33.5c-2.8,6-5.9,12.1-10.7,16.8c-5.6-8.8-7.7-19.3-10.8-29.1
			c-3.6-13.4-5.4-27.3-5-41.2c0.8-24.4-0.6-49,2.8-73.2c3.8-20.6,8-41.1,11.8-61.7c1.9-10,4.1-19.9,5-30c1.2-13.3,0.8-26.8-1.4-39.9
			c-7.4-46-14.4-92-23.6-137.6c-2.8-15.5-6.7-30.9-7.6-46.7c-2.1-22.8,2.8-45.3,5.3-67.8c3.8-27.8,4.7-56,5.4-84
			c0.6-21.6,2.6-43.5-1.4-65c-3.3-18.6-10-36.3-15.1-54.4c-6.4-21-10.2-42.8-11.8-64.7c-2.1-23.5-4.6-47-6.4-70.6
			c-0.7-15.6,0.9-31.2,3.3-46.5C1797.5,52.4,1799.2,28.8,1803.4,5.4z"/>
		<path stroke="#000000" stroke-width="9.375000e-002" d="M852.7,16.8c10.9,12.1,20.6,25.1,30.9,37.7c7.3,8.6,13.2,18.2,19.7,27.3
			c16.5,23.4,33.9,46.2,50.2,69.8c10.5,15.1,18,32.9,18.1,51.5c-0.6,18.4-1.8,36.7-2.8,55c-0.6,9.1-0.5,18.3-2.2,27.3
			c-2.8,15-7.8,29.6-15.1,43.1c-5.6,10.7-11.6,21.2-17.1,32c-7.3,15-11,32-8.9,48.6c2.5,19.7,7.2,39.1,6.8,59.1
			c0.2,16.5-3.1,32.7-5.8,48.9c-5,29.7-10.1,59.4-15.1,89c-4.3,24.5-8.7,49.1-9,74c-0.1,30,0,60-0.1,90c-0.4,15.6-2.3,31.2-5.8,46.5
			c-4.6,19.2-9.6,38.3-14.2,57.4c-4.8,20.2-7.6,40.9-9.1,61.6c-2.9,26.3-1.6,52.7,0.9,79c1.6,27.1,5.9,54,11.2,80.6
			c3.8,18.4,5.7,37.4,13.2,54.8c7.3,18.6,19.4,34.7,30.3,51.3c8.4,13.1,18.1,25.5,24,40.1c4.8,11.3,7.3,23.5,7.3,35.8
			c-0.1,13.7,0,27.3-0.1,41c-0.7,22,4.2,43.9,12.7,64.2c7.3,18.8,15.7,37.3,21.6,56.6c7.8,25,9.1,51.4,12.8,77.2
			c2.8,18.6,1.9,37.8-3,55.9c-2.7,10.2-6.2,20.1-8.9,30.3c-3.5,13.8-7.5,27.5-9.9,41.6c-1.2,8.2-3.3,16.2-5.1,24.2
			c-2.6,11.1-5.2,22.7-12.1,32c-3.2,4.6-6.1,9.4-8.7,14.3c-4.5-12.2-7.4-25-9.7-37.8c-2.8-12.6-2.5-25.7-2.5-38.5
			c-0.3-15.4-0.3-30.9-1-46.4c-0.3-15.6-2.1-31.1-2.9-46.7c-1.2-20.7-4.5-41.2-10.1-61.2c-11.5-40.5-22.6-81.2-33.9-121.7
			c-5.3-17.7-11.7-35-19.2-51.9c-16.5-38.5-33.3-76.9-49.7-115.5c-9.5-22.4-18.4-45-27.5-67.6c-6.3-15.2-12.1-30.8-15-47.1
			c-2.4-12.2-2.9-24.6-3.9-36.9c-0.9-13-2-26-2.2-39c-0.1-25.5,4.1-50.6,6.8-75.9c4.4-37.7,8.7-75.4,13.1-113.1
			c1.3-11.7,2.5-23.5,5.2-35c5.1-24.8,15.2-48.2,23.4-72c5.7-16.1,11.6-32.2,17.4-48.3c6.4-17.1,12.8-34.4,14.9-52.7
			c1.9-12.3,1.3-24.7,1.3-37.1c0-26.6,0-53.3,0.1-79.9c0.4-17.3-0.9-34.8,2-52c2.8-20.7,10.8-40.2,17.1-60
			c10.3-30,19-60.5,26.7-91.3c5.8-24.9,14.5-49.1,16.9-74.7c1.2-12.6-3-25-8.8-36c-6.9-12.9-17.2-23.5-25.3-35.6
			c-5.1-6.3-8.2-13.8-12.1-20.8c-3.3-5.6-5.1-11.7-7.5-17.7c-7.8-19.9-11.5-41-15.8-61.9C855.5,32.3,853.7,24.6,852.7,16.8z"/>
		<path stroke="#000000" stroke-width="9.375000e-002" d="M332.1,113.9c0.4-2.7,1.1-5.5,2-8.1c4.2,8.9,6.3,18.6,8.9,28.1
			c2.4,7.9,3.1,16.3,4,24.5c1.9,19.7,6,39.1,9,58.6c1.3,9.7,4.4,19.1,4.5,28.9c0.3,11.7-2.6,23.3-7.5,33.9
			c-2.6,5.9-6.2,11.2-9.3,16.9c-8.4,15-15,31-18.9,47.8c-1.6,7.4-3.6,14.7-6,22c-6.4,20.1-16.4,38.8-25.8,57.6
			c-10.5,21.1-19.6,42.9-27.9,64.9c-5.7,15.6-12.5,30.9-17.3,46.9c-3.7,12.4-6,25.3-7,38.2c-0.9,20.6-2.6,41.4-0.6,62
			c1,12.8,3.6,25.5,5.7,38.2c2.9,16.9,5.5,33.9,7.7,50.9c2.5,18.9-1.1,38.4-9,55.7c-9.5,21.2-19.7,42.3-25,65
			c-3,14.4-5.5,28.8-8.6,43.2c-1.2,9-3.4,18-8.3,25.8c-1.6,2.4-2.9,5.3-5.6,6.5c-5.9-16.6-8.5-34-11.9-51.2
			c-1.2-5.6-1.2-11.4-1.7-17.1c-0.8-12.2,2.2-24.1,3.8-36.1c4-27.7,9.2-55.2,12-83c1.7-19.5,4.3-39.3,0.9-58.7
			c-3.5-22.9-14-43.8-20-66c-3.8-15-4.5-30.8-1.9-46.1c3.3-17.8,6.6-35.7,9.8-53.5c5.5-31.3,12.2-62.5,19.5-93.5
			c4.9-23.2,12.9-45.6,22.9-67.1c6.7-15.7,14.7-30.9,24.1-45.2c9.1-14.4,20-27.6,28.9-42.1c15.4-24.1,28.7-50.1,34.1-78.4
			c0.9-5.5,2.5-10.9,4-16.3c0.9-4.1,2.4-8,3.1-12.1C327.2,141.1,329.8,127.6,332.1,113.9z"/>
		<path stroke="#000000" stroke-width="9.375000e-002" d="M771.6,317c2.8-8,4.7-16.4,8.6-24c7.3,19.6,10.8,40.3,14.2,60.9
			c3.3,17.6,5.3,35.4,7.9,53.2c3.1,20.2,2.2,41-2.3,60.9c-4.9,22.1-9.3,44.4-15.5,66.2c-9.6,32.8-20,65.5-34.3,96.6
			c-8.6,18.3-15.6,37.5-18.3,57.6c-1.2,7.9-1.7,15.8-2.4,23.8c-2.6,21.8-2.8,43.9-0.6,65.7c2.1,16.9,2.8,34,2.9,51
			c-0.4,14.7,0.4,29.7-3.2,44.2c-1.5-0.7-2.3-2.2-3.1-3.5c-3.7-5.7-7.2-11.5-10.2-17.6c-4-9.7-8.4-19.2-12-29
			c-6.1-16.3-13.2-32.3-16.9-49.4c-3.7-15.2-4.5-30.9-5-46.5c-1.1-14.7-0.1-29.5,1.5-44.2c2.5-17.1,5.4-34.3,10.9-50.8
			c5.7-18.4,14.6-35.5,22.3-53.1c8.1-18.4,17.5-36.4,22.8-55.9c4.3-14.4,5.8-29.3,7.5-44.2c4.5-36.9,8.9-73.9,13.4-110.9
			c1.3-11.6,4.9-22.7,6.7-34.2C767.5,328,769.9,322.6,771.6,317z"/>
		<path stroke="#000000" stroke-width="9.375000e-002" d="M69.7,387.4c1.2-0.5,1.7,0.9,2.2,1.7c2.6,5.1,3.7,10.8,5.5,16.2
			c5.9,19.1,8.6,39,10,58.9c3.1,44.1,8.4,88,13,131.9c1.9,22,6.1,43.9,5.1,66c-0.6,19.7-6.1,38.7-10,57.8c-4.7,19.6-6.3,40-3.9,60.1
			c1.8,14,1.9,28,2.5,42c0.1,15.9-3.4,31.4-5.1,47.2c-2.7-2.2-4.2-5.4-5.8-8.4c-2.7-5.7-5.4-11.4-7.9-17.2
			c-4.5-11.5-7.7-23.5-11.8-35.2c-6.3-19.5-12.8-38.9-18.9-58.4c-3.4-12-7.2-23.8-11.2-35.6c-4.7-14.3-11.6-28.1-13.2-43.3
			c-1.5-11.7-0.3-23.6,2.7-35c5.5-22.8,10.9-45.7,16.4-68.5c5.3-21.9,8.9-44.1,11.2-66.5c3.2-25.4,5.6-50.8,9.3-76.1
			C62.2,412.2,64.6,399.3,69.7,387.4z"/>
		<path stroke="#000000" stroke-width="9.375000e-002" d="M1052.8,424.8c1.6-4,2.5-8.3,5-11.9c5.5,8.8,8.9,18.6,12.2,28.5
			c7.2,25.1,17.4,49.3,23.4,74.7c4.7,20.3,9.8,40.4,13,61c2.2,13.5,3.4,27.2,4.6,40.8c1.9,20.7,8.5,40.8,18,59.2
			c10.3,19.9,18.5,40.9,23,62.9c4.3,21.1,9.9,42,11.7,63.6c1.7,16.1,0.9,32.3,1.1,48.5c0.2,11.7-0.8,23.4-3.2,34.8
			c-3.4,17.7-10.6,34.3-16.4,51.3c-6.5,18.9-14.6,37.3-24.3,54.8c-9.9,18-21.3,35.2-29.7,54c-10.3,22.3-16.3,46.1-22.5,69.8
			c-5.4,23.4-11.1,47-11.2,71.1c-0.3,11.2,0.8,22.3,1.5,33.4c1.9,26.5,3.5,53,5.4,79.5c0.8,14,2,28.1,1.7,42.1
			c-0.3,9.8-2.6,19.4-5.7,28.6c-1.8,4.5-4.6,8.4-7.6,12.2c-4.2-7.4-6.1-15.8-8.9-23.7c-16.9-53.2-35.5-105.8-51.6-159.3
			c-3.6-11.8-7.8-23.5-8.8-35.8c-2.6-21.5,3-42.9,10.4-62.9c7.5-20.3,19.3-38.5,29.5-57.5c8.3-15.3,17.8-30,24.1-46.3
			c5-12.4,8.4-25.3,10.1-38.6c1.9-11.8,2.7-23.9,1-35.8c-1.1-13.5-5.6-26.3-9.6-39.1c-2.6-8.8-5.9-17.5-6.7-26.8
			c-1.7-13.7,0.9-27.8,6.2-40.5c6.6-15.2,13-30.6,21.1-45.1c6.8-12,11.7-25.6,11.1-39.6c-0.1-7.6-2.4-15-5.3-21.9
			c-9.4-22.8-17.1-46.3-23.3-70.1c-6-21.2-10.1-42.9-11.9-64.8c-3.5-36.5-5.6-73.6-0.2-110C1043.2,452,1047.9,438.3,1052.8,424.8z"
			/>
		<path stroke="#000000" stroke-width="9.375000e-002" d="M590.9,714.9c3.1-3.4,6.9-6.2,11-8.3c3.1-0.6,6.4-0.5,9.6-0.1
			c1.5,1.4,2,3.6,2.5,5.6c3.3,19-0.2,38.1-3.2,56.9c-2.7,14-5.9,28.2-13.2,40.5c-10.3,17.4-24.5,32.1-38.8,46.2
			c-18.4,17.9-35.5,37.8-47.3,60.8c-3.9,7.8-8.4,15.6-9.3,24.4c-1.8,13.3,3.9,26.3,11.9,36.7c8.3,10.6,18.3,20,28.5,28.8
			c8.5,7,17.4,13.7,27.2,18.8c10.6,5.7,21.3,11.4,31.9,17.1c7.5,3.8,14.5,8.7,20.9,14.1c11.9,10.1,23.1,21.4,31.5,34.6
			c9.8,14.3,19.3,28.7,29.1,42.9c7.7,8.9,16.1,17.2,24,25.9c11.6,12.7,21.6,27.5,25.8,44.3c5.6,23.1,20.6,42.4,36.3,59.7
			c12.6,13.5,24.3,27.6,36.2,41.7c12.2,14.5,24.5,28.9,36.6,43.5c12.4,15.1,21.9,33.5,23,53.3c0.4,11.6,1,23.1,1.4,34.7
			c0.7,17.7,4.3,35.3,10.6,51.8c7,18.1,15.3,35.8,22,54c8.7,24.7,12.6,51.4,8.9,77.4c-1.8,14.1-6.1,27.8-11.9,40.8
			c-1.7-2.9-3.1-5.9-4.2-9.1c-2.6-6.7-5.7-13.1-8.3-19.8c-3.9-10.2-8.1-20.2-12.4-30.2c-4.8-11.3-8.5-23-12.3-34.7
			c-7.1-22.5-14.3-44.9-21.4-67.4c-5.6-17.3-10.1-35.1-17.8-51.6c-8.1-18.7-19.6-35.6-30-53c-8.2-13.4-16.4-26.9-24.7-40.3
			c-11-17.5-24.1-33.6-38.4-48.5c-17.7-17.2-34.7-37-40.9-61.5c-2.5-10.4-4.8-20.8-7.3-31.2c-7.4-4-12.6-10.8-18.6-16.5
			c-20.5-20.5-41-41-61.5-61.5c-14.9-15.5-29.1-31.7-42.2-48.7c-10.8-13.1-22.9-25.2-36.2-35.8c-6.9-5.6-14.6-10-21.4-15.6
			c-10.2-8.1-19.5-17.3-28.2-26.9c-10.3-11.1-16.3-25.9-17.4-40.9c-0.8-11.8,2.9-23.2,5.8-34.5c4.2-14.7,9.6-29.1,16-43
			c7.9-17.3,18.9-33.1,31.1-47.6c9.8-11.4,20.5-22.2,30-33.9c8.8-10.8,16.9-22.2,23.8-34.3c7.3-13.3,13.7-27,20.6-40.5
			C583.6,727.6,586.1,720.6,590.9,714.9z"/>
		<path stroke="#000000" stroke-width="9.375000e-002" d="M126.2,829.8c0.7,0.6,1.3,1.3,1.6,2.1c3.6,8.1,6,16.7,8.7,25.1
			c6.4,22.1,4.4,45.2,5.7,67.9c0.1,16.1,1.8,32,2.8,48.1c1.3,19.1,3.6,38.2,6.9,57c2.4,12.7,4.2,25.7,8.6,37.9
			c7.2,21.9,20.5,40.9,32.4,60.5c6.2,9.7,11.1,20.2,14.7,31.1c3.3,8.7,4.8,18.1,4,27.4c-1.8,12.3-4.6,24.5-9.7,35.9
			c-1.3,2.3-2.9,4.5-5.1,6.1c-1.3-9.3-3.4-18.5-7.8-26.9c-8.4-20.3-20.1-39.1-33.2-56.7c-11.8-15.9-23.1-32.2-32.4-49.7
			c-6.9-12.7-12.6-26.1-18.8-39.1c-9.6-19.7-15.5-41.5-15-63.5c-0.3-16.4,0.3-32.8,3.2-48.9c1.8-11.9,5.2-23.5,8-35.2
			c2-8.2,4.3-16.3,7-24.3c4.2-12.3,7.2-24.9,11.8-37C121.8,841.8,123.8,835.7,126.2,829.8z"/>
		<path stroke="#000000" stroke-width="9.375000e-002" d="M1847.2,1014.7c3.8,7.4,5.9,15.6,9,23.4c3.2,10.4,6.8,21,6.1,32
			c-0.8,19-5.1,37.5-8.5,56.1c-4.1,22.3-11.6,43.7-16.7,65.7c-2,6.9-2.5,14-2.7,21.2c0.1,21,1.2,42,1.3,62.9
			c0.3,21.5,2.7,42.8,5.4,64.1c2.4,19.3,5.4,38.6,8.7,57.9c3.2,19.5,7,38.9,8.1,58.7c1.3,17.1,0.6,34.3,0.8,51.5
			c0.2,18.3-0.6,36.7,0.9,55c1,18.5,4.3,36.8,6.8,55.1c2,12.4,3.2,24.9,5.8,37.2c2.8,13,5.8,26,9.9,38.7
			c7.6,23.2,15.2,46.5,23.8,69.4c4.6,12.5,9.6,24.8,14.3,37.2V1920h-19.5c-5.4-21.5-8.8-43.7-17-64.4c-7.6-20-19-38.3-29.1-57
			c-11.9-21.6-24.1-43-34.7-65.2c-7.3-14.9-13.9-30.1-20.9-45.1c-5.6-12.1-9.7-25-11.4-38.2c-2-13.3-0.3-26.8-0.1-40.3
			c1.1-13.2,0.7-26.5,1.9-39.7c1.3-20,5.1-39.6,9.1-59.2c2.6-11.8,3.9-23.9,3.3-35.9c-0.6-17.4-6.1-34.1-9.8-51
			c-5.4-21.6-10.2-43.4-13.6-65.4c-3.6-23.9-8.1-48.2-5.8-72.5c2-23.7,4-47.4,6-71c0.5-11.7,0.2-23.4,0.8-35.1
			c-0.3-12.1,1.7-24.1,3.8-35.9c5.5-18,13.2-35.3,22-51.9c8.9-16.5,17.5-33.1,27-49.2C1836.9,1033.4,1841.3,1023.7,1847.2,1014.7z"
			/>
		<path stroke="#000000" stroke-width="9.375000e-002" d="M386.3,1076.6c5.8,2.1,11.6,4.3,17.4,6.7c10.7,5.5,21.4,11.2,32.1,16.8
			c17.3,8.2,33.8,17.8,50.9,26.3c8.3,4.6,17.5,7.8,24.6,14.3c11,9.5,21.6,20.3,27.3,33.8c5.9,17.1,11.4,34.3,17.2,51.4
			c6.8,20.4,12.3,41.3,16.8,62.3c8.9,38.6,14.4,78.2,12.9,117.8c-0.1,14.4-2.2,28.7-3.1,43.1c-4.9-4-7-10.2-9.8-15.7
			c-9.1-18.5-12.4-38.9-16.4-58.9c-5.7-24.1-8.8-48.8-16.2-72.5c-5.2-17.3-12.6-33.8-19.5-50.5c-4.1-9.7-7.5-19.8-13.8-28.3
			c-8.9-12.5-19.6-23.9-31.9-33c-14.3-9.3-26.8-21-38.2-33.7c-5.6-6.2-10.7-12.9-15.3-20C408.4,1117.3,395.9,1097.7,386.3,1076.6z"
			/>
		<path stroke="#000000" stroke-width="9.375000e-002" d="M1451.5,1099.5c5.2-7.6,9.9-15.8,16.7-22.1c1,13.5,1.2,27.1,1.1,40.6
			c0.5,25.4-2.3,50.7-3.8,76c-3.5,50.7-6.9,101.3-10.5,152c-1.2,14.8-1.4,29.7-4.2,44.3c-2.8,16.1-8.2,31.5-14,46.6
			c-11.2,31.1-21.2,62.7-28.4,95c-5.4,23.6-6.9,48-5.1,72.1c0.4,10,1.1,20.1,2.8,30c2.9,18.7,8.5,36.7,14,54.8
			c5.7,18.5,6,38.6,0.7,57.3c-9.5,34.3-18.6,68.7-28.4,102.9c-3.6,12.5-7.8,24.8-11.4,37.3c-3,11-4.7,22.4-5.1,33.8h-39.8
			c3.6-16.6,6.9-33.3,10.4-49.9c5.3-25.6,11-51.2,14.3-77.1c2-17.6,5-35.2,3.3-53c-1.4-19.8-7.4-38.8-10.7-58.2
			c-3.5-20.6-8.3-41-10.9-61.7c-1.6-16.7-1.8-33.5-0.5-50.3c0.5-21.7,5.2-43.3,13.2-63.5c8.6-21.5,16.5-43.3,23.6-65.4
			c4.7-14.8,9.9-29.4,12.1-44.8c2.7-16.2,1.6-32.8,1-49.1c-0.5-9.7-0.6-19.4-1.2-29c-1-29.4,2-58.7,3.8-88c0.9-9.6,0.9-19.4,3-28.9
			c3.3-16.1,10.3-31.3,19.2-45.1C1428.6,1137.3,1440.1,1118.4,1451.5,1099.5z"/>
		<path stroke="#000000" stroke-width="9.375000e-002" d="M55.3,1139.8c8.4,6.9,16.7,13.9,24.6,21.3c6.1,5.9,12.8,11.1,18.7,17.3
			c13.9,14.5,29.9,26.8,44.9,40.1c10.5,10,20.1,21.1,27.3,33.7c7.5,12.8,10.3,27.6,14.8,41.7c2.8,8,4.5,16.5,8.7,24
			c7,12.7,16.3,24,26.8,33.9c6.8,6.6,14.9,11.7,22.1,17.9c14.7,12.6,28.5,26.5,39.7,42.4c10.3,13.7,19.9,27.8,29.8,41.8
			c6.5,9.3,13.1,18.6,18.8,28.5c8.3,13.8,14.5,29.4,26,41c6.7,6.8,12,14.9,17.5,22.6c4.1,5.4,5.3,12.3,6.1,18.9
			c0.3,4,0.5,8.2-0.6,12.1c-8.6-2.7-15.8-8.3-23.5-12.8c-14.5-9.3-29.8-17.8-42-30.1c-13.7-12.8-26.2-27.4-33.6-44.8
			c-3.7-8.3-7.5-16.5-11.3-24.7c-8-17.7-21-32.7-34.9-46.2c-13.1-11.9-27.7-22.1-39.9-35c-14.2-14.3-23.7-32.7-30-51.6
			c-4.6-12-10.4-23.5-16.5-34.8c-6.5-12.2-16.2-22.3-25.9-32c-7.7-7.7-16.5-14.1-24.4-21.5c-12.1-11.7-24.5-24.2-29.7-40.6
			C62.1,1182.4,58.7,1161.1,55.3,1139.8z"/>
		<path stroke="#000000" stroke-width="9.375000e-002" d="M76.3,1336.5c5.8,2.2,9.8,7,14.6,10.8c11.4,9.3,19.8,21.4,29.5,32.3
			c4.1,4.9,9,9,13.1,13.8c13.9,16.3,26.5,33.6,39.1,50.9c10.9,15.1,19.4,32.3,22.6,50.7c2.9,20.2,5.4,40.4,8.2,60.6
			c1.7,11.7,1.6,23.7-0.4,35.4c-3.6,21.8-14.9,41.1-20.4,62.3c-3.2,11.9-4.6,24.3-4.3,36.6c0.4,8.8,1,17.6,1.8,26.3
			c2.1,27.5,3.7,55.1,5.6,82.7c1.8,20.4,1,41-2.9,61.1c-4,20-7.6,40.2-13.1,59.9h-65.2c5.9-19.8,10.2-40.3,11.3-61
			c1.1-24.3,1.5-48.7,2.7-73c1.3-26,4.9-51.8,7.4-77.6c1-9.2,1.7-18.5,3.1-27.6c1.6-7.2,2.4-14.6,3.9-21.8c3-16.2,7.8-32,11.3-48.1
			c3.3-16.4,3.7-33.3,1.1-49.8c-3.9-22.9-6.1-46.1-12-68.6c-4.5-17.7-11.8-34.6-18.5-51.5c-8.4-20.8-16.9-41.5-25.4-62.2
			c-2.9-7.6-6.7-14.9-8.5-22.8C79.2,1349.5,76.8,1343.2,76.3,1336.5z"/>
		<path stroke="#000000" stroke-width="9.375000e-002" d="M1677,1455.2c3.2-10,6.6-20.6,13.9-28.4c1.8,6.6,2.5,13.4,3.8,20.1
			c2.1,11.1,3.7,22.3,4.5,33.6c2.9,43,6.5,85.9,9.7,128.9c0.8,7.1,0.8,14.3,2,21.4c2,15.6,5.2,31.1,9.9,46.2
			c4.5,14.6,9.4,29.1,13,43.9c4.1,15.8,6.7,31.9,9.3,47.9c1.8,11.7,4.3,23.3,5,35.1c0.9,14-0.1,28-2.8,41.8
			c-4.9,24.7-9.6,49.5-14.5,74.2h-86.1c8.2-23.9,16.3-47.8,21.6-72.5c2.1-9.1,3.7-18.4,5.6-27.5c3.8-18.5,3.2-37.8-1.5-56.1
			c-4.2-16.3-8.4-32.6-12.6-48.8c-5.7-22.8-13-45.5-13.3-69.2c-0.1-12.9,0.7-25.9,1.2-38.8c0.5-14.2,1.2-28.5,3.6-42.5
			c3.1-20.2,9.4-39.8,14.2-59.7C1667.9,1488.3,1672.5,1471.8,1677,1455.2z"/>
		<path stroke="#000000" stroke-width="9.375000e-002" d="M615.1,1468.4c13.3,4.6,27.4,6.4,40.8,10.7c7,2.7,13.8,5.8,20.1,9.8
			c27.3,21.6,54.9,42.9,79.7,67.4c24.8,24.4,48.3,50.6,66.7,80.3c8.8,13.8,15,29,20.1,44.5c4.5,13.4,6.5,27.5,10.3,41.2
			c2.3,8.4,5,16.7,8,24.8c3.8,10.4,9.4,20,14.3,29.9c2.7,5.7,6.6,10.7,9.9,16c5.9,9.1,11.9,18.1,18.2,26.9c4.6,6,7.6,13,11.3,19.5
			c7.1,12.9,8.5,28.2,7.5,42.6c-17.3-8.1-34.2-17.7-48.2-30.7c-24.9-25.4-47.8-53.7-62.4-86.4c-8.8-20.3-17.1-40.9-26.1-61.2
			c-11-25.2-24.3-49.2-36.7-73.6c-5.4-10.4-10.2-21.2-17.4-30.4c-10.5-13.7-22.7-26.1-36.7-36.1c-13.3-10-26.1-20.6-38.1-32
			c-6.7-7-14.4-13.3-18.8-22.2C628.9,1496.4,623,1481.8,615.1,1468.4z"/>
		<path stroke="#000000" stroke-width="9.375000e-002" d="M303.8,1602c4.7,1.3,9,3.4,13.4,5.6c3.9,2.1,7.9,4,10.9,7.3
			c6.4,6.5,13.5,12.5,18.7,20.2c6.4,8.9,11.8,18.6,16.9,28.4c3.8,7.7,6.6,16,7,24.6c1,14.9,0.6,29.9-0.8,44.8
			c-0.7,9.8-2.7,19.5-4.1,29.3c-4.1,26.2-7.4,52.5-10.8,78.8c-3.6,26.7-10.1,52.8-15.6,79.1h-39.7c-4.8-20.1-7.8-40.5-11.3-60.9
			c-1.5-11.1-1.4-22.5,0.4-33.6c2.3-14.5,7.8-28.1,11.9-42.1c5.9-17.8,10.2-36,13.4-54.4c1.8-9.5,2.8-19,4.2-28.5
			c1.7-10.8,1.9-21.7,0.7-32.5c-0.7-5.7-0.1-11.4-1-17c-1.4-8.4-2.8-16.9-5.3-25.1C310.6,1617.7,306.6,1610,303.8,1602z"/>
		<path stroke="#000000" stroke-width="9.375000e-002" d="M1014.4,1602.3c1.5,1.9,2.8,4,3.8,6.1c1.6,3,2.8,6.2,3.5,9.5
			c1.5,6.7,4.5,13,6.8,19.4c7.7,21.1,17.2,41.5,25.9,62.1c8.1,18.1,12.9,37.6,13.1,57.5c0,14,0,28,0,42c0.1,14-0.6,28.1,1.5,42
			c1.9,15.2,6.4,29.8,11.6,44.2c4,11.6,7.9,23.2,12,34.8h-73.6c-3.8-9.9-5.6-20.5-5.3-31c-0.2-24.7,0.8-49.4,2.3-74
			c1.3-22.4-1.1-44.8-4.8-66.9c-4-27-7.4-54-11.1-81c-1.3-11.2-2.7-22.8,0.1-34c2-8.2,4.5-16.4,9-23.6
			C1011,1607.1,1012.7,1604.7,1014.4,1602.3z"/>
		<path stroke="#000000" stroke-width="9.375000e-002" d="M1271.6,1744.4c3.5-8.5,6.5-17.4,11.3-25.3c2.5,4.7,3.4,10,5.2,15
			c2.1,5.7,2.2,11.9,4.1,17.7c1.9,5.8,2.8,12,4,18c2.7,13.9,1.3,28.2-1,42.1c-2.4,15.9-8.2,31-12.9,46.3c-3.6,11.5-8,22.8-10.1,34.8
			c-1.7,8.9-2.3,18-1.9,27.1h-45.9c0.6-13.2,4.5-25.9,8.3-38.5c5.1-17,12.4-33.3,17.2-50.4c5.2-17,8-34.6,12-51.9
			C1263.9,1767.2,1267.7,1755.8,1271.6,1744.4z"/>
		<path stroke="#000000" stroke-width="9.375000e-002" d="M0,1800.7c7.3,19.6,13.2,39.7,17.7,60.1c4.2,19.4,4.9,39.4,3.3,59.2H0
			V1800.7z"/>
		<path stroke="#000000" stroke-width="9.375000e-002" d="M500.6,1821.4c3.5-5.7,7-11.9,12.8-15.4c-0.1,7,0,14.1,0.1,21.1
			c0.8,10.5,3.1,20.9,6.4,30.9c6.9,20.7,14.6,41.2,21.1,62h-43.9c-1.7-11-2.8-22-4.2-33c-0.8-8.4-2.5-16.7-2.2-25.1
			C490.5,1847.9,493,1833.4,500.6,1821.4z"/>
	</g>
	<g id="_x23_dd8718ff">
		<linearGradient id="SVGID_2_" gradientUnits="userSpaceOnUse" x1="1730.775" y1="1674.66" x2="1730.775" y2="108.12">
			<stop  offset="0" style="stop-color:#F8DEBF"/>
			<stop  offset="3.135234e-003" style="stop-color:#F7DCBB"/>
			<stop  offset="3.324690e-002" style="stop-color:#F1C895"/>
			<stop  offset="6.645069e-002" style="stop-color:#ECB673"/>
			<stop  offset="0.103" style="stop-color:#E7A856"/>
			<stop  offset="0.1436" style="stop-color:#E39C3F"/>
			<stop  offset="0.1903" style="stop-color:#E1922E"/>
			<stop  offset="0.2465" style="stop-color:#DE8C21"/>
			<stop  offset="0.3221" style="stop-color:#DD881A"/>
			<stop  offset="0.5" style="stop-color:#DD8718"/>
			<stop  offset="0.6779" style="stop-color:#DD881A"/>
			<stop  offset="0.7535" style="stop-color:#DE8C21"/>
			<stop  offset="0.8097" style="stop-color:#E1922E"/>
			<stop  offset="0.8564" style="stop-color:#E39C3F"/>
			<stop  offset="0.897" style="stop-color:#E7A856"/>
			<stop  offset="0.9335" style="stop-color:#ECB673"/>
			<stop  offset="0.9668" style="stop-color:#F1C895"/>
			<stop  offset="0.9969" style="stop-color:#F7DCBB"/>
			<stop  offset="1" style="stop-color:#F8DEBF"/>
		</linearGradient>
		<path fill="url(#SVGID_2_)" d="M1786.6,111.6c0.1-0.9,0.2-2.6,0.3-3.5c0.6,3.4,3,6.3,2.7,9.9c-0.1,1.7,0,3.4,1.6,4.4
			c1.8,23.6,4.3,47.1,6.4,70.6c1.6,21.9,5.4,43.7,11.8,64.7c5.1,18.1,11.9,35.8,15.1,54.4c4,21.4,2,43.3,1.4,65
			c-0.8,28.1-1.6,56.2-5.4,84c-2.5,22.5-7.4,45.1-5.3,67.8c1,15.8,4.8,31.1,7.6,46.7c9.2,45.6,16.2,91.7,23.6,137.6
			c2.2,13.2,2.6,26.6,1.4,39.9c-0.8,10.1-3.1,20-5,30c-3.9,20.6-8.1,41.1-11.8,61.7c-3.3,24.3-1.9,48.8-2.8,73.2
			c-0.3,13.9,1.4,27.8,5,41.2c3.1,9.8,5.2,20.3,10.8,29.1c4.8-4.7,7.9-10.8,10.7-16.8c4.9-10.5,7.6-22,7.8-33.5
			c0.2-16-0.3-32,0.6-47.9c0.6-10.4,0.4-20.7,1.2-31.1c0.2-4.9,2.5-9.4,3.6-14.2c2-8.6,5.1-17.1,5.9-25.9
			c3.5-30.3,7.2-60.6,10.7-90.9c1-9.3,2.7-18.5,2.5-27.9c0.1-13.1-2.9-26.1-7.7-38.3c-2.4-6-4.6-12.2-5.5-18.6
			c-2.1-12.6,0.2-25.6,5.4-37.1c4.9-10.8,9.9-21.5,14.8-32.3c8.9-18.1,14-38.4,12.7-58.6c-2.9-36.7-5.8-73.3-8.8-110
			c-1.9-24.1-3.5-48.2-8-71.9c-4.9-25.5-10.5-50.8-15.6-76.2c-4.7-23.4-7.8-47.2-10.8-70.9c-2.8-22.6-6.4-45.1-10.2-67.6
			c0.3-0.4,1-1.1,1.4-1.4c-0.8-1.8-1-3.7-1.1-5.7c2.2-0.1,4.2,0.9,6.4,1.1c10.8,0,21.7-0.1,32.6,0c6.1,1.8,12.5,0.4,18.8,1.3
			c2.8,1.4,5.8,2.1,9,1.8v1556.3c-4.4-0.1-8.6-1.8-13.1-1.3c-6.8-1.1-13.6-2.8-20.6-1.8c-0.7-1.4-0.9-2.9-1-4.4
			c-0.8,0.1-1.7,0.2-2.5,0.3c-0.5,1-1,2-1.5,3c-0.9,0-1.9,0-2.8,0c-0.5-1-0.9-2-1.3-3c-3.7,0.6-2.8-3.6-2.9-5.9
			c-0.8-1.2-1.7-2.3-2.4-3.5c-2.6-12.3-3.8-24.8-5.8-37.2c-2.5-18.3-5.7-36.6-6.8-55.1c-1.5-18.3-0.8-36.7-0.9-55
			c-0.2-17.2,0.5-34.4-0.8-51.5c-1.1-19.7-5-39.2-8.1-58.7c-3.3-19.2-6.3-38.5-8.7-57.9c-2.7-21.3-5.2-42.6-5.4-64.1
			c0-21-1.1-42-1.3-62.9c0.2-7.1,0.7-14.3,2.7-21.2c5.1-22,12.7-43.4,16.7-65.7c3.5-18.6,7.8-37.2,8.5-56.1c0.7-11-2.9-21.6-6.1-32
			c-3.1-7.8-5.2-15.9-9-23.4c-5.9,9-10.3,18.7-15.3,28.2c-9.4,16.2-18.1,32.8-27,49.2c-8.8,16.6-16.5,33.9-22,51.9
			c-2.1,11.8-4.1,23.8-3.8,35.9c-0.6,11.7-0.3,23.4-0.8,35.1c-2,23.7-4,47.4-6,71c-2.3,24.3,2.2,48.5,5.8,72.5
			c3.4,22,8.2,43.8,13.6,65.4c3.7,16.9,9.2,33.6,9.8,51c0.6,12.1-0.6,24.1-3.3,35.9c-4,19.6-7.8,39.2-9.1,59.2
			c-1.2,13.2-0.8,26.5-1.9,39.7c-1,3.4-0.5,6.9-0.8,10.3c-1.8,9.5-0.6,19.3-1,28.9c-1.1-0.2-2.1-0.4-3.1-0.6
			c0.1,1.8,0.2,3.5,0.3,5.3c-1.1,0-2.2,0-3.3,0c0-2.3,0.1-4.6,0-6.8c-0.8,0.8-1.6,1.6-2.4,2.4c-2.7,0.9-5.9,2.3-8-0.6
			c-5.1,0.2-10-0.8-15-1.4c-4.5-3.1-10.1-0.8-15.1-2.2c-4.3-0.6-8.7-2.3-13.1-1.3c-0.2,0.5-0.6,1.4-0.8,1.8c-1,0-1.9,0-2.8,0
			c0-2,0.1-4,0.1-6c-0.9-0.1-1.9-0.1-2.8-0.2c-0.5,2.6-0.9,5.2-1.4,7.8c-3.1-1.3-2.6-5.1-2.9-7.8c-1-1.1-1.9-2.1-2.8-3.1
			c-0.1-2,0.5-4.3-1.5-5.5c-1.2-7.1-1.3-14.3-2-21.4c-3.2-43-6.8-85.9-9.7-128.9c-0.8-11.3-2.4-22.5-4.5-33.6
			c-1.3-6.7-2.1-13.5-3.8-20.1c-7.3,7.8-10.7,18.4-13.9,28.4c-4.6,16.5-9.1,33.1-13.6,49.7c-4.8,19.9-11,39.4-14.2,59.7
			c-2.4,14.1-3.1,28.3-3.6,42.5c-0.5,12.9-1.2,25.9-1.2,38.8c-1.8,3-0.6,6.7-1.7,9.9c-0.5,3.3-2.2,6.2-4,8.9c-0.9-2-1.4-4.1-1.5-6.3
			c-1,0-1.9,0-2.9,0c0,1.8-0.3,3.5-1,5.2c-4.7-0.8-9.3,0.8-14,0.9c-0.8,0.7-1.5,1.4-2.3,2.1c-0.7,0-2.1-0.2-2.8-0.2
			c-1.1,1-2,2.2-3.1,3.2c-8.4-0.6-16.3,4-24.8,2.9c-0.4,0.3-1.2,1.1-1.5,1.4c-0.4-0.3-1.1-1-1.5-1.4c-5.3,0.3-10.9-1-15.8,1.3
			c-1.9,0.8-4,0.6-6,0.8c-0.7-0.8-1.5-1.5-2.2-2.2c-2.9,0-5.8,0-8.7,0.1c-1,0.5-2.1,0.9-3.2,1.2c0.1-2,0-4-1-5.7c0,1.1,0,3.4,0,4.5
			c-1.1,0-2.1,0-3.1,0c0.4-4-1.4-7.7-1.1-11.6c-0.3-4,0.9-8.2-0.9-12c0-4.7,0.8-9.4,1.4-14.1c2.9-20.5,6-41,9.5-61.3
			c6.1-34,13-67.8,19.4-101.7c8.1-42.3,16.3-84.6,24.5-126.9c4.3-22.4,6.6-45.2,8.2-67.9c1.9-24,4-48.1,5.3-72.1
			c0.1-2.8,1.4-5.2,2.7-7.5c9.5-19.2,16.8-39.5,21.7-60.4c2.3-8.7,3.8-17.8,7.7-26c7-15.3,18.3-28.2,30.6-39.5
			c17.4-14.6,34.9-29.1,52.4-43.6c11.8-9.3,22.3-20.5,29.3-33.9c4.9-9.5,6.8-20.3,5.9-30.9c-1.1-31.2-11-61.6-26.4-88.6
			c-8.6-15.3-19.4-29.3-29.1-43.9c-1-1.4,0.8-2.6,1.5-3.6c11.7-12.5,19.9-27.6,28.9-41.9c8.3-12.9,15.1-26.9,18.1-42.1
			c2.6-11.5,1.6-23.3,1.8-35c-0.2-25.7,0.8-51.4,2.4-77.1c0.7-16.7-1-33.5-4.7-49.8c-2-8.7-4.1-17.3-6.1-26
			c-5-21.1-12.8-41.4-22.7-60.7c-2.9-6.1-6.3-12-8.5-18.4c-5.4-14.5-5.5-31-0.4-45.6c3.1-8.5,6.2-16.9,9.4-25.4
			c6.8-18.9,15.3-37.6,16.5-57.9c1.3-12.1-0.4-24.2-1.5-36.2c-2.6-25.3-4.8-50.7-6.7-76.1c-1.9-23.8-3-47.7-8.1-71.1
			c-1.7-9.9-5-19.6-6.6-29.5c2.6-1.7,2-5.3,2.9-7.9c1.2,0.1,2.4,0.2,3.6,0.2c0.5-0.9,1-1.8,1.5-2.8c0.3,0.8,0.8,2.5,1,3.3
			c2-1.6,4-3.1,6-4.7c2.1,0,4.3,0,6.5,0c0.4-0.5,1.1-1.5,1.5-2c3.1,0.1,6.3,0,9.4,0c0.4-0.5,1.2-1.5,1.5-2c1.5,0,2.9,0,4.5-0.1
			c4.4-2,9.4-1.7,13.9-3.4c1.7-0.7,3.6-0.4,5.4-0.5c0.8-0.8,1.7-1.6,2.6-2.4c0.4,0.4,1.2,1.2,1.6,1.6c1.7-0.1,3.1-1,4.3-2.2
			C1784.7,111.6,1785.6,111.6,1786.6,111.6z"/>
		<linearGradient id="SVGID_3_" gradientUnits="userSpaceOnUse" x1="281.38" y1="1741.64" x2="281.38" y2="119.3635">
			<stop  offset="0" style="stop-color:#F8DEBF"/>
			<stop  offset="3.135234e-003" style="stop-color:#F7DCBB"/>
			<stop  offset="3.324690e-002" style="stop-color:#F1C895"/>
			<stop  offset="6.645069e-002" style="stop-color:#ECB673"/>
			<stop  offset="0.103" style="stop-color:#E7A856"/>
			<stop  offset="0.1436" style="stop-color:#E39C3F"/>
			<stop  offset="0.1903" style="stop-color:#E1922E"/>
			<stop  offset="0.2465" style="stop-color:#DE8C21"/>
			<stop  offset="0.3221" style="stop-color:#DD881A"/>
			<stop  offset="0.5" style="stop-color:#DD8718"/>
			<stop  offset="0.6779" style="stop-color:#DD881A"/>
			<stop  offset="0.7535" style="stop-color:#DE8C21"/>
			<stop  offset="0.8097" style="stop-color:#E1922E"/>
			<stop  offset="0.8564" style="stop-color:#E39C3F"/>
			<stop  offset="0.897" style="stop-color:#E7A856"/>
			<stop  offset="0.9335" style="stop-color:#ECB673"/>
			<stop  offset="0.9668" style="stop-color:#F1C895"/>
			<stop  offset="0.9969" style="stop-color:#F7DCBB"/>
			<stop  offset="1" style="stop-color:#F8DEBF"/>
		</linearGradient>
		<path fill="url(#SVGID_3_)" d="M0,119.4c5.4-0.5,10.6,1.7,16.1,1c0.4,0.5,1.3,1.5,1.7,2c5.2-0.6,10.2,1.5,15.3,1
			c0.9,0.6,1.7,1.3,2.6,1.9c5.2,0.8,10.2,2.4,15.5,2.2c1.2,1,2.4,2,3.6,3c3.6,0,7.2,0,10.7,0c0.1,1.8,0.2,3.5,0.4,5.3
			c-1.2,5.2-3,10.2-4.4,15.3c-4.6,16.4-6.3,33.6-4.7,50.5c1.5,13.4,3.1,26.9,4.6,40.3c0.6,7.2,3.1,14,4.5,21
			c2.3,10.6,6.7,20.5,8.7,31.1c1,3.1,0.9,6.8,3.6,9c1.4-4.5,2.3-9.2,3.5-13.8c3.3-13,7.8-25.6,11.4-38.5c2.1-9.1,4.4-18.1,6.7-27.1
			c2.9-11.8,6.9-23.3,10.3-34.9c4.7-14.9,9.2-30,14.1-44.8c1.9-0.7,3.2-2.2,4.3-3.8c0,1.8,0,3.5,0,5.3c5.1-0.9,9.7,2,14.8,2
			c0.8,0.6,1.6,1.3,2.3,1.9c6.9,0.2,13.6,2.3,20.5,2c2.6,3.6,7.3,1.2,11,2.3c9.2,2.2,18.6,3,27.9,4.8c8.4-0.8,16.6,2.5,25,2
			c2.3,0.1,4.6,1.1,6.9,1c10.3,0,20.7-0.1,31,0c3.5,0.2,6.8-1.3,10.3-1.2c4.8-1.4,9.8-0.8,14.8-0.9c5,0.1,10.1-0.5,15,1
			c5-1.1,10.2-0.9,15.2-2.2c-2.3,2.4-1.7,5.6-1.6,8.6c-1.5,5.4-3.1,10.7-4,16.3c-5.4,28.3-18.7,54.4-34.1,78.4
			c-8.9,14.6-19.8,27.7-28.9,42.1c-9.4,14.3-17.4,29.5-24.1,45.2c-10,21.5-18,43.9-22.9,67.1c-7.3,31-13.9,62.1-19.5,93.5
			c-3.3,17.9-6.5,35.7-9.8,53.5c-2.7,15.3-1.9,31.1,1.9,46.1c5.9,22.2,16.4,43.1,20,66c3.3,19.5,0.8,39.2-0.9,58.7
			c-2.9,27.8-8,55.3-12,83c-1.6,12-4.6,23.9-3.8,36.1c0.5,5.7,0.5,11.5,1.7,17.1c3.3,17.2,6,34.6,11.9,51.2c2.7-1.3,4-4.2,5.6-6.5
			c4.9-7.8,7.1-16.8,8.3-25.8c3.1-14.3,5.6-28.8,8.6-43.2c5.3-22.7,15.5-43.8,25-65c7.9-17.3,11.4-36.8,9-55.7
			c-2.2-17-4.8-34-7.7-50.9c-2.1-12.7-4.7-25.3-5.7-38.2c-2-20.6-0.3-41.3,0.6-62c1-12.9,3.3-25.8,7-38.2
			c4.8-16,11.6-31.2,17.3-46.9c8.3-22,17.4-43.8,27.9-64.9c9.4-18.8,19.4-37.5,25.8-57.6c2.3-7.2,4.3-14.5,6-22
			c3.9-16.8,10.5-32.8,18.9-47.8c3.1-5.6,6.7-11,9.3-16.9c4.9-10.6,7.8-22.2,7.5-33.9c-0.1-9.8-3.2-19.2-4.5-28.9
			c-3-19.5-7.1-38.9-9-58.6c0.4-0.6,1.1-1.6,1.5-2.2c0.1-2.3-0.7-5.9,2.3-6.6c4.4-0.5,9,0.6,13.3-0.6c2.2-0.9,4.3,1,6.5,0.4
			c4-1.2,8.3-1.3,12.4-0.4c4,1,8.2,0.3,12.3,0.4c0.8,0.7,1.6,1.4,2.4,2.1c2-0.1,3.9-0.1,5.9-0.1c0,0.5,0.1,1.6,0.1,2.1
			c2.5,0,5,0,7.6-0.1c0.3,0.5,0.9,1.5,1.1,2c0.7,0,2.1,0,2.8,0.1c2.4,1.8,5,3.5,8.1,3c5,4.5,12.1,5.2,17.7,8.8
			c1.1,0.1,2.1,0.1,3.2,0.2c2.7,2.8,6.4,4.4,10.3,3.9c0.8,1.3,1.6,2.7,2.4,4.1c1.8,0,3.5-0.1,5.3-0.1c0.4,0.5,1.1,1.6,1.5,2.1
			c1.4,0,2.9,0,4.3,0c4.3,2.8,8.8,5.2,13.6,6.8c4.3,2.1,8.7,4,13.2,5.6c2.5,1.7,5.3,3.1,8.3,3.6c4.2,0.3,6.9,4.8,11.3,4
			c0.9,1.8,1.7,3.6,2.5,5.4c1.4-1,2.8-1.9,4.3-2.9c3,2.6,3.8,6.3,3.5,10.1c-9.3,15.8-21.2,29.8-32,44.6c-8.8,11.8-16.3,24.5-24,37
			c-9.8,15.7-20.3,30.9-31,45.9c-11.5,16.4-22.6,33-33.2,50c-9.8,16-16.9,33.9-19.3,52.6c-3.1,25.8-5.4,51.7-5,77.7
			c0,26.9-6.7,53.3-15.6,78.5c-7.3,20.5-20.5,38.2-29.2,58.1c-7.1,15.6-9.6,32.7-13.6,49.3c-2.5,12-5.8,23.9-7.2,36.1
			c-0.3,3.8-1.9,7.3-3.2,10.9c-6.1,17.3-11.3,34.8-16,52.5c-2,7.4-4.6,14.6-6.4,22.1c-7.6,28.9-15.1,57.8-22.7,86.6
			c-5.9,18.9-10.3,38.2-12.7,57.8c-0.7,13.3-2.7,26.6-2.2,40c0.4,10.2,2.2,20.3,5.1,30c3.1,10.5,7.8,20.4,11.5,30.7
			c4.9,13.1,9.3,26.5,13,40c6.1,23.1,13,46.4,12.8,70.4c-0.4,12.3-0.4,24.7-0.9,37c0.9,10.2,4.5,19.9,7.2,29.8
			c6.6,23.7,13.9,47.2,23.2,70c6.5,15.5,12.5,31.3,20.7,46c8.2,15.1,18.2,29,28.7,42.5c23.7,30.7,45.6,62.6,67.1,94.9
			c20.9,31.5,38.7,64.8,60,96c21.5,31.8,44.9,62.5,62.9,96.4l-1.5-1.4c0.3,2.4,0.9,4.8,1.6,7.1c-1.3,0-2.6-0.1-3.9-0.1
			c-2,1.3-4,2.9-6.2,3.8c-2.6,0.4-5.2,0.2-7.7,0.3c-0.3,0.5-0.9,1.4-1.2,1.9c-5.6-0.7-9.4,5.5-15.1,4.1c-0.3,0.5-1,1.5-1.3,2
			c-5.5-0.4-10.3,3-15.8,2.3c0,0.7-0.1,1.9-0.1,2.6c-3.3,1.4-6.9,1.1-10.4,1.4c-2.4,0.6-4.7,1.6-7.1,2c-6.5,1-12.6,4.2-19.3,3.9
			c-0.3,0.5-1,1.5-1.3,2c-0.7,0-2-0.2-2.6-0.2c-0.7,0.7-1.4,1.4-2.1,2.2c-3.8,0-7.6-0.1-11.4,0.1c-2.6,3.3-7.5,3.2-11.1,1.9
			c-1.7-0.7-2.6,1.2-3.8,1.9c-1.9,0-3.8,0-5.7-0.1c-0.3,0.5-1,1.6-1.3,2.1c-3.8,0-7.6,0-11.3,0.1c-0.4,0.5-1.2,1.5-1.6,1.9
			c-4.2,0.1-8.4-0.2-12.7,0.1c-0.8,0.6-1.5,1.2-2.2,1.9c-2.5,0-5-0.2-7.4,0.4c-4.3,1.2-8.7,0.5-13.1,0.6c-0.9,0.7-1.8,1.5-2.7,2.3
			c-2.8,0.1-3.9-2.9-5.5-4.6c-1.1,1.6-1.4,3.5-1.3,5.5c-0.5,0-1.5,0.1-2,0.1c0-0.6,0.1-1.8,0.1-2.5c-0.5,0.1-1.6,0.4-2.1,0.5
			c0-1.5-0.1-3-0.1-4.5c-0.7,1.4-1.3,3-1.9,4.5c-0.3-2.2,1.3-5.8-1.6-6.8c1.4-14.9,1.8-29.8,0.8-44.8c-0.4-8.6-3.2-16.9-7-24.6
			c-5.1-9.8-10.4-19.5-16.9-28.4c-5.1-7.7-12.2-13.7-18.7-20.2c-3-3.3-7.1-5.2-10.9-7.3c-4.3-2.2-8.7-4.3-13.4-5.6
			c2.9,8,6.8,15.6,8.9,23.9c2.5,8.2,3.8,16.7,5.3,25.1c0.9,5.6,0.4,11.4,1,17c1.1,10.8,1,21.8-0.7,32.5c-1.5,9.5-2.5,19.1-4.2,28.5
			c-1.7,1.5-3.7,3.1-3.7,5.6c-1-0.1-1.9-0.1-2.9-0.1c-0.2-1.9,0.8-4.3-0.8-5.9c-0.2,2.6-0.1,5.2-0.1,7.8c-9.5-0.4-19.2,1-28.5-1.1
			c-6.3,1.6-12.7,1-19.1,1.1c-1.8,0.2-3.1-1.1-4.6-1.8c-2.8,0.2-5.8-2.2-8.3-0.2c-3.4-1.9-7.4-0.2-11-1.4c-3.3-1-6.8-0.5-10.1-0.5
			c-0.2-0.5-0.6-1.4-0.8-1.8c-5.7-0.3-11.3-1.7-16.8-3c-5-2.4-10.3-3.9-15.7-5.2c-1.3,0.1-2.5,1.1-3.8,1c-2.2-1.9-5.2-3.8-5.4-7
			c-0.5-0.1-1.6-0.2-2.1-0.2c-0.9-8.8-1.4-17.6-1.8-26.3c-0.4-12.3,1.1-24.7,4.3-36.6c5.5-21.2,16.9-40.6,20.4-62.3
			c2-11.7,2-23.7,0.4-35.4c-2.8-20.2-5.3-40.4-8.2-60.6c-3.2-18.5-11.8-35.6-22.6-50.7c-12.6-17.3-25.3-34.6-39.1-50.9
			c-4.1-4.9-9.1-8.9-13.1-13.8c-9.7-10.9-18.1-23-29.5-32.3c-4.8-3.7-8.8-8.6-14.6-10.8c0.6,6.6,2.9,12.9,4.5,19.4
			c1.8,7.9,5.6,15.2,8.5,22.8c8.5,20.7,17.1,41.4,25.4,62.2c6.8,16.9,14,33.8,18.5,51.5c6,22.5,8.1,45.8,12,68.6
			c2.6,16.5,2.3,33.4-1.1,49.8c-3.5,16.1-8.2,31.9-11.3,48.1c-1.5,7.2-2.3,14.6-3.9,21.8c-0.4,0.3-1.1,0.9-1.4,1.2
			c-0.2,2.9-0.1,5.9-1.1,8.7c-3.8-0.6-8.5,1.2-11.4-2c-3.8-0.2-7.6-0.1-11.4,0c-0.8-0.7-1.5-1.4-2.3-2.1c-3.2,0-6.4,0-9.6,0.1
			c-0.4-0.5-1.2-1.5-1.6-2.1c-2.2,0-4.3,0-6.5,0.1c-0.4-0.5-1.1-1.5-1.5-2c-3.5,0.3-6.9-0.9-10.5-1.1c-0.8-0.7-1.6-1.3-2.4-1.9
			c-2.1,0.1-4.2,0.2-6.2-0.4c-4-1.2-8.2,0-12.2-0.8c-3.6-0.7-7.2-1.9-10.9-1.8c-3.7,0-7.1-2.2-10.9-1.9c-5.7,0.4-11.2-1.5-16.8-2
			c-4.2,0.5-8.1-1.5-12.3-1V119.4 M69.7,387.4c-5.1,12-7.5,24.9-9.8,37.6c-3.7,25.3-6.1,50.8-9.3,76.1c-2.3,22.4-6,44.6-11.2,66.5
			c-5.5,22.9-10.9,45.7-16.4,68.5c-3,11.4-4.2,23.3-2.7,35c1.6,15.2,8.5,28.9,13.2,43.3c4,11.8,7.7,23.6,11.2,35.6
			c6,19.6,12.6,38.9,18.9,58.4c4.1,11.7,7.3,23.6,11.8,35.2c2.5,5.8,5.2,11.5,7.9,17.2c1.6,3,3.2,6.2,5.8,8.4
			c1.7-15.7,5.2-31.3,5.1-47.2c-0.6-14-0.7-28.1-2.5-42c-2.4-20.1-0.8-40.5,3.9-60.1c3.9-19.2,9.3-38.2,10-57.8
			c1-22.1-3.2-44-5.1-66c-4.6-43.9-9.9-87.8-13-131.9c-1.4-19.9-4.1-39.8-10-58.9c-1.8-5.4-2.9-11.1-5.5-16.2
			C71.4,388.3,70.9,386.8,69.7,387.4 M126.2,829.8c-2.4,5.9-4.4,11.9-6.6,17.9c-4.7,12.1-7.7,24.7-11.8,37c-2.8,8-5,16.1-7,24.3
			c-2.8,11.7-6.2,23.3-8,35.2c-2.8,16.1-3.5,32.5-3.2,48.9c-0.6,22,5.4,43.8,15,63.5c6.2,13.1,11.8,26.4,18.8,39.1
			c9.3,17.5,20.6,33.8,32.4,49.7c13.1,17.6,24.8,36.3,33.2,56.7c4.3,8.4,6.5,17.6,7.8,26.9c2.1-1.6,3.8-3.8,5.1-6.1
			c5.1-11.4,7.9-23.6,9.7-35.9c0.8-9.3-0.7-18.7-4-27.4c-3.5-10.9-8.5-21.5-14.7-31.1c-11.8-19.6-25.2-38.6-32.4-60.5
			c-4.4-12.3-6.2-25.2-8.6-37.9c-3.3-18.9-5.6-37.9-6.9-57c-1-16-2.7-32-2.8-48.1c-1.3-22.7,0.7-45.8-5.7-67.9
			c-2.7-8.4-5.1-17-8.7-25.1C127.5,831.1,126.9,830.4,126.2,829.8 M55.3,1139.8c3.4,21.3,6.8,42.6,13.6,63.1
			c5.2,16.4,17.6,29,29.7,40.6c7.9,7.4,16.7,13.8,24.4,21.5c9.7,9.7,19.4,19.8,25.9,32c6.1,11.3,11.9,22.8,16.5,34.8
			c6.3,19,15.8,37.3,30,51.6c12.2,12.9,26.8,23.1,39.9,35c13.9,13.4,26.8,28.4,34.9,46.2c3.7,8.3,7.5,16.5,11.3,24.7
			c7.4,17.4,19.9,32,33.6,44.8c12.2,12.3,27.5,20.8,42,30.1c7.7,4.4,14.9,10.1,23.5,12.8c1.1-4,0.8-8.1,0.6-12.1
			c-0.8-6.6-2-13.5-6.1-18.9c-5.5-7.8-10.8-15.8-17.5-22.6c-11.5-11.7-17.7-27.2-26-41c-5.7-9.9-12.3-19.2-18.8-28.5
			c-9.9-13.9-19.6-28.1-29.8-41.8c-11.2-15.9-25-29.7-39.7-42.4c-7.2-6.2-15.3-11.3-22.1-17.9c-10.5-9.9-19.8-21.3-26.8-33.9
			c-4.2-7.5-5.9-16-8.7-24c-4.5-14-7.3-28.8-14.8-41.7c-7.2-12.6-16.8-23.7-27.3-33.7c-14.9-13.4-31-25.6-44.9-40.1
			c-5.9-6.1-12.6-11.4-18.7-17.3C72,1153.7,63.7,1146.7,55.3,1139.8z"/>
		<linearGradient id="SVGID_4_" gradientUnits="userSpaceOnUse" x1="1447.4788" y1="1663.66" x2="1447.4788" y2="136.51">
			<stop  offset="0" style="stop-color:#F8DEBF"/>
			<stop  offset="3.135234e-003" style="stop-color:#F7DCBB"/>
			<stop  offset="3.324690e-002" style="stop-color:#F1C895"/>
			<stop  offset="6.645069e-002" style="stop-color:#ECB673"/>
			<stop  offset="0.103" style="stop-color:#E7A856"/>
			<stop  offset="0.1436" style="stop-color:#E39C3F"/>
			<stop  offset="0.1903" style="stop-color:#E1922E"/>
			<stop  offset="0.2465" style="stop-color:#DE8C21"/>
			<stop  offset="0.3221" style="stop-color:#DD881A"/>
			<stop  offset="0.5" style="stop-color:#DD8718"/>
			<stop  offset="0.6779" style="stop-color:#DD881A"/>
			<stop  offset="0.7535" style="stop-color:#DE8C21"/>
			<stop  offset="0.8097" style="stop-color:#E1922E"/>
			<stop  offset="0.8564" style="stop-color:#E39C3F"/>
			<stop  offset="0.897" style="stop-color:#E7A856"/>
			<stop  offset="0.9335" style="stop-color:#ECB673"/>
			<stop  offset="0.9668" style="stop-color:#F1C895"/>
			<stop  offset="0.9969" style="stop-color:#F7DCBB"/>
			<stop  offset="1" style="stop-color:#F8DEBF"/>
		</linearGradient>
		<path fill="url(#SVGID_4_)" d="M1581.3,137.7c7.3,1.6,14.9,0.5,22.3,0.8c4.7,0.2,9.6-0.6,14.2,0.8c4.1-0.3,8.1,2.1,12.1,0.8
			c3.3-1.1,6.8,0,10.1-0.9c2.3-0.7,4.8-0.8,7.2-0.6c0.5,0.5,1.5,1.4,2,1.8c0.2-1,0.5-2.9,0.6-3.9c0.2,1.3,0.4,2.7,0.6,4
			c0.5,0.1,1.6,0.2,2.1,0.2c4.2,14.1,7.5,28.5,7.9,43.2c0.6,11.1-0.6,22.1-1.8,33.1c-1.3,15.1-3.2,30.1-5.7,45
			c-3.6,21.2-8.3,42.2-12.5,63.3c-4.5,23.7-10.9,47.4-11,71.7c-0.1,20.7,0.5,41.9,7.9,61.5c5.2,15.4,14.5,29,21.8,43.4
			c11.8,21.8,21.4,44.8,31.3,67.5c6.5,14,11.3,29,12.1,44.5c0.8,11.4-0.8,22.7-1.8,34c-2.6,27.4-5.2,54.7-7.7,82.1
			c-1.9,20.4-7.4,40.3-15.3,59.2c-14.2-22.8-26.4-47.1-33.2-73.2c-4.8-18.4-16-34-23.8-51.1c-5.1-9.1-7.6-19.3-10.9-29.1
			c-3.5-10.2-5.9-20.9-11.4-30.3c-4.5-8.2-8.3-17-14.8-23.9c-3.3,16.6-1.6,33.6-0.7,50.4c0.7,11.4,0.7,22.8,1.8,34.2
			c2.5,21.3,4.1,43.2,11.8,63.4c6,17.4,15.9,33,24.9,48.9c7.8,13.8,15.8,27.5,23.5,41.4c9.3,17.2,17.2,35.2,23.3,53.8
			c3.4,10.7,7.6,21.1,9.8,32.2c2.7,13.1,3,26.7,0.7,39.9c-1.1,6.3-2.3,12.7-3.4,19c-2.5,12.5-7.7,24.3-14.4,35.1
			c-8.3,13.6-19.8,24.9-29,37.9c-10.4,13.7-19.1,28.6-27.2,43.7c-6.4,11.2-11.5,23-18,34c-6,8.4-12,16.6-18.3,24.8
			c-8.1,10.7-14.8,22.5-19,35.2c-5,14.6-4.5,30.2-6.1,45.4c-2.5,24.2-3,48.8,0.4,72.9c2.3,21.6,6.9,43.3,5,65.1
			c-0.7,13.6-4.1,26.9-7,40.1c-13,58.7-26.2,117.3-39.1,176c-2.7,13-4.1,26.2-5.4,39.4c-2.4,3.7-1.5,8.2-1.6,12.4
			c-0.1,4.4,0.1,8.8-0.1,13.2c-1.6,7.7-0.8,15.6-1,23.5c-0.5,0-1.6-0.1-2.1-0.1c0.1-0.6,0.1-1.8,0.2-2.4c-2.1,0.2-4.1,1.2-6.2,1.3
			c-1.3-0.8-2.2-2-3.3-3c-0.7,0-2.1,0.1-2.8,0.1c-0.3-0.5-0.9-1.5-1.3-2.1c-0.7,0-2.1,0.1-2.8,0.1c-0.3-0.5-0.9-1.6-1.2-2.1
			c-2.5,0-4.9,0-7.4,0c-3.2-2.9-7.6-2.9-11.4-4.1c-0.3-0.4-0.9-1.2-1.3-1.6c-2.1-0.3-4.2-0.9-6.2-1.4c-0.4-0.5-1.2-1.4-1.6-1.8
			c-2.9,0.1-6.1,0.8-8.1-1.8c-3.2-0.3-6.3-1.4-9.6-1.2c0-0.5-0.1-1.5-0.1-2.1c-1.6,0-3.2,0.1-4.8,0.1c-1.3-1-2.7-1.9-4.1-2.6
			c-0.1,0.7-0.2,2.2-0.2,3c-1.2-0.5-2.4-1.1-3.5-1.6c-0.7,0.5-1.4,1.1-2.1,1.6c-0.5-0.9-1-1.7-1.5-2.5c-1.2,0.1-2.4,0.1-3.6,0.2
			c0.1-2.5-1.3-4.4-3.4-5.6c-1.8-9.9-2.4-20-2.8-30c-1.8-24.1-0.3-48.5,5.1-72.1c7.1-32.3,17.2-63.9,28.4-95
			c5.8-15.2,11.2-30.6,14-46.6c2.8-14.6,3-29.5,4.2-44.3c3.5-50.7,6.9-101.3,10.5-152c1.5-25.3,4.3-50.6,3.8-76
			c0-13.6-0.1-27.1-1.1-40.6c-6.9,6.3-11.5,14.5-16.7,22.1c-11.5,18.9-22.9,37.8-34.7,56.6c-8.9,13.8-15.9,29-19.2,45.1
			c-2,9.5-2.1,19.2-3,28.9c-1.8,29.3-4.8,58.6-3.8,88c0.5,9.7,0.6,19.3,1.2,29c0.6,16.4,1.7,32.9-1,49.1
			c-2.2,15.4-7.4,30.1-12.1,44.8c-7,22.1-15,43.9-23.6,65.4c-8,20.2-12.7,41.8-13.2,63.5c-1.3,16.7-1.1,33.5,0.5,50.3
			c-2.3,1.7-2.4,4.4-2.6,7c-0.1-1.1-0.4-3.2-0.5-4.3c-0.7,0.7-1.4,1.5-2.2,2.3c0-0.9,0.1-2.8,0.2-3.8c-0.6,0-1.7,0-2.3-0.1
			c0.1,0.9,0.2,2.6,0.3,3.4c-0.5-0.1-1.4-0.3-1.9-0.4c-1.5-1.9-3.9-2-6.1-2c-2.6,0-4.8-2.6-7.5-1.2c-2.7,1.1-5.5-0.1-7.8-1.7
			c-1.9-1.4-4.4-0.8-6.6-1.2c-2-0.7-3.7-2-5.6-2.7c-2.8-0.3-5.5,0.2-8.3-0.3c-2.7-1.2-5.2-2.8-8.2-3.1c-3.3-1-7.1-0.1-10.1-1.9
			c-2.4-1.5-5.4-0.4-7.9-1.2c-1.7-0.6-3.4-0.7-5.1-0.7c-0.7-1.7-1.9-3.1-3.8-3.5c-5.7-22.4-13.3-44.3-20.6-66.3
			c-7-21.6-15.2-42.8-24.5-63.5c-6.3-13.9-12.4-28-15.7-43c-4.8-19.5-5.2-40.2-0.1-59.7c2.6-10.9,7.2-21.1,11.3-31.5
			c9.8-24.2,19.6-48.3,29.4-72.5c6.8-16.6,11.4-34.2,13.2-52c1.2-11.5,3.8-22.8,7.9-33.7c6.6-17.8,16.9-33.8,25.5-50.6
			c2-4.5,6.6-6.9,9.5-10.8c11.2-13.8,21.1-28.6,29.9-44.1c9.5-16.7,19.1-33.4,28.7-50.1c9.9-17.1,17.9-35.2,23.3-54.3
			c4.8-18.5,9.6-37,14.3-55.5c2.1-8,1.4-16.3,1.5-24.5c-0.1-6,0.1-12.1-0.5-18.1c-0.5-11.3-3.2-22.3-5-33.4
			c-2.1-8.6-5.1-17-7.6-25.5c-6.9-22.5-15.8-44.5-27-65.2c-28.7-51.8-57.8-103.4-86.7-155.2c-8.7-15.7-15.3-32.8-18.2-50.6
			c-4.4-33.9-9.4-67.8-8.7-102.1c-0.1-28.3-0.2-56.7,1.8-85c1.5-21.6-0.4-43.7-8.3-64c-6.7-19-15.7-37.1-23.9-55.5l1.5,0.3
			c0-1.3,0-2.6,0-3.8c1.8-0.9,3.6-2.4,5.7-2.4c5.2,0,10.5,0.1,15.8,0.1c2.4,0.1,4.7-1.1,7.2-1.1c4.5-0.1,9.1,0.6,13.5-0.7
			c3.8-0.6,7.7,0,11.5-0.3c0.4,0.3,1.2,0.9,1.6,1.2c6.3-2.4,13.2-0.6,19.8-1.2c0.7,0.5,2.1,1.6,2.7,2.1c0.2-1.3,0.5-2.6,0.7-3.9
			c2.3,3.8,0.6,8.3,2.1,12.2c0.2-0.9,0.5-2.7,0.7-3.6c1.4,10.9,2.9,21.8,4.6,32.7c2.6,18.5,8.3,36.5,16,53.5
			c8.1,17.4,16.7,34.6,24.7,52.1c3.2,5.6,6.8,11.1,8.9,17.3c2.8,8.2,5.4,16.4,8.3,24.5c10.9,29.5,21.6,59.1,35.7,87.2
			c3.8,9.5,8.2,18.9,12.9,28c3.5,6.1,6.4,12.8,12.2,17.2c2.6-12.5,2.8-25.3,3.4-37.9c0.2-12.7,1.5-25.7-2-38.1
			c-5.5-19.3-10.1-39-19.4-56.9c-7.2-15.3-18.3-28.4-25-44c-4.2-9.8-6-20.4-6.7-30.9c-0.8-28.4-1.9-56.7-2.5-85.1
			c0.2-10.1-0.1-20.3,1.3-30.3c0.4,3.2,0.3,6.5,0.1,9.8c2.2-7,0.3-14.4,1.6-21.5c1.5-4.2,3.9-8.1,4.7-12.6c0.4,0,1.2,0,1.6,0
			c0.4,1.3,1.3,2.3,2.3,3.2c0-1.3,0-2.7-0.1-4c6-2.1,12.1-4.6,17.1-8.8c1.6-1.6,3.9-1.1,6-1.3c3-2.5,6.6-4,9.8-6.1
			c6.9-3.6,13.2-9.2,21.2-9.9c0-0.7-0.1-2.2-0.1-3c1.7,0.1,3.4,0.1,5.1,0.3c0.1,5.1-0.3,10.3,0.9,15.4c0.4,8.1-0.1,16.2,0.3,24.3
			c0.6,4,0.8,8,0.7,12c0.2-1.5,0.3-3,0.4-4.4c2.1,25.6,10.2,50,16.6,74.7c5.9,21.1,10.6,42.6,13.1,64.4c5.9,47.7,11.6,95.4,17.4,143
			c1.1,9.7,2.9,19.3,2.6,29.1c-0.1,11.6-1.7,23.2-4.5,34.4c-9.1,31.7-17.3,63.7-26.1,95.5c-5.7,19.7-6.5,40.8-2.5,60.9
			c8.8,47.3,17.4,94.7,26.4,142c4,23.1,9.3,46,16.4,68.4c1.8-1.9,2.3-4.5,3.2-6.9c3.3-10.8,7-21.5,9-32.5
			c3.3-12.7,2.9-25.9,4.2-38.9c0.8-9.6,0.3-19.3,0.4-28.9c0-20.7,0-41.4,0-62.1c-0.2-11.8,0.4-23.6,2.6-35.1
			c3-18.6,10.3-36.2,15.9-54.1c3.5-11.3,5.4-22.9,5.8-34.7c0.5-14.4-2.5-28.6-3.4-43c-2.4-25.3-1.5-50.7-1.8-76
			c-0.6-27.8-4.6-55.4-7.9-82.9c-2.5-21.6-6.8-43-12.5-64c-4.6-18.5-10.4-36.9-12.5-56c-2.4-17.3-1.5-34.7-1.7-52.1
			c0.1-24.5-0.2-49.1,0.2-73.6c1.2-9.1-0.3-18.3,1-27.4c1.5-7.1-0.7-14.6,1.4-21.6c0.7,0.1,2.2,0.2,3,0.2c0.6-0.9,1.2-1.9,1.8-2.8
			c0.6,1.1,1.2,2.2,1.8,3.3c1.6-1.2,3.1-2.3,4.7-3.5c7.2-0.3,14.5,0.9,21.6-0.9c13-0.2,25.9,0,38.9-0.1
			C1572.5,138.4,1577,139.1,1581.3,137.7z"/>
		<linearGradient id="SVGID_5_" gradientUnits="userSpaceOnUse" x1="627.2952" y1="1664.41" x2="627.2952" y2="218.22">
			<stop  offset="0" style="stop-color:#F8DEBF"/>
			<stop  offset="3.135234e-003" style="stop-color:#F7DCBB"/>
			<stop  offset="3.324690e-002" style="stop-color:#F1C895"/>
			<stop  offset="6.645069e-002" style="stop-color:#ECB673"/>
			<stop  offset="0.103" style="stop-color:#E7A856"/>
			<stop  offset="0.1436" style="stop-color:#E39C3F"/>
			<stop  offset="0.1903" style="stop-color:#E1922E"/>
			<stop  offset="0.2465" style="stop-color:#DE8C21"/>
			<stop  offset="0.3221" style="stop-color:#DD881A"/>
			<stop  offset="0.5" style="stop-color:#DD8718"/>
			<stop  offset="0.6779" style="stop-color:#DD881A"/>
			<stop  offset="0.7535" style="stop-color:#DE8C21"/>
			<stop  offset="0.8097" style="stop-color:#E1922E"/>
			<stop  offset="0.8564" style="stop-color:#E39C3F"/>
			<stop  offset="0.897" style="stop-color:#E7A856"/>
			<stop  offset="0.9335" style="stop-color:#ECB673"/>
			<stop  offset="0.9668" style="stop-color:#F1C895"/>
			<stop  offset="0.9969" style="stop-color:#F7DCBB"/>
			<stop  offset="1" style="stop-color:#F8DEBF"/>
		</linearGradient>
		<path fill="url(#SVGID_5_)" d="M576.4,218.2c4,1.4,8.2,3.3,11.3,6.3c1.3,0,2.5,0,3.8-0.1c1.9,2.5,4.8,3.7,7.8,4.3
			c2.7,0.8,6.3,0.5,7.7,3.6c6.9-0.5,12.4,4.6,18.6,6.8c4,0.4,7.3,2.8,10.8,4.5c2.5,1.4,5.6,0.1,8,1.9c2.7,1.9,5.6,3.4,9,2.9
			c0.7,0.7,1.3,1.4,2,2c1.9,0,3.8,0,5.8,0c2.7,1.4,5.2,3.4,6.6,6.2c-7.3,15.3-15,30.4-22.3,45.7C628,339,611.4,376,596.8,413.9
			c-6.7,17.8-13.8,35.4-19.6,53.4c-7.8,23.5-13.6,47.6-20.4,71.4c-6.5,23.2-13.6,46.2-20.6,69.3c-5.9,23.3-21.5,42.6-38.8,58.6
			c-13.6,12-27.3,24-40.9,36c-14.9,13.9-28.8,29.1-39.7,46.3c-9.9,16.5-19.4,33.3-29.1,49.9c-7.7,13.9-17.4,27.3-20.9,43.1
			c-3.5,13.5-6.4,27.3-6.5,41.3c-0.1,7-1.8,14.4,0.6,21.2c2.9-3.9,5.7-8,8.8-11.7c4.5-5.9,10.3-10.5,14.6-16.6
			c31.7-39.7,64.8-78.3,98.5-116.3c12.1-13.9,24.5-27.5,36.1-41.9c10.2-12.7,19.8-25.7,28.8-39.2c12.9-19.1,25.9-38.1,38.8-57.2
			c14.2-20.3,24.9-43.1,30.8-67.1c6.7-24.1,13.6-48.1,20.3-72.2c4-14.9,8.5-29.7,14.5-43.9c9-21.6,20.8-41.9,31.3-62.8
			c8.6-16.4,16.9-33,23.7-50.2c6.6-16,11.7-32.5,18.2-48.5c1.4,0,2-1.3,2.8-2.1c2.4,0,4.7-0.4,7-1.3c5.2,3,11.6,1,16.9,3.9
			c2.4,1.1,4.8-1.3,7.3-0.5c2.6,0.9,5.5,0.8,8.2,0.7c0.8,0.7,1.5,1.4,2.3,2.1c6.4,0.2,12.9-0.7,19.2,0.9c4.4,0.5,8.9-0.6,13.3,0.7
			c3,0.8,6.1,0.3,9.2,0.3c0.8,0.7,1.6,1.4,2.4,2.1c7.8-0.1,15.6,0,23.4-0.1c1.9-0.4,2.9,1.3,4.1,2.3c5.8,1.8,11.9,1.9,18,1.6
			c0.5,0.8,1,1.7,1.6,2.5c0.4-0.4,1.3-1.2,1.8-1.5c2.3,0,4.7,0.1,7,0.1c0-0.5,0.1-1.6,0.1-2.1c-1.7,0.1-3.5,0.2-5.2,0.3
			c0-0.5-0.1-1.6-0.1-2.2c-2.7,0-5.8,0.7-7.9-1.5c1.7-0.4,3.5-1.6,5.4-1c4,1,8.2,0.3,12.2,0.6c0.8-0.7,1.6-1.4,2.4-2.1
			c1.3,0,2.5,0,3.8,0c0.8,0.7,1.5,1.4,2.3,2.1c4.9-0.3,10.1,0.8,14.8-1.4c0,1.9,0.1,3.9,0.2,5.8c1.9-1.3,1.8-3.5,1.9-5.5
			c0.9,0,1.9,0,2.9,0c1.2,2.2,1.2,4.7,1,7.1c0.5,0,1.6,0.1,2.1,0.2c0.4-1.5,0.8-3,1.2-4.4c1.7-0.2,2.4,1.1,3.1,2.4
			c-7.8,30.8-16.4,61.3-26.7,91.3c-6.4,19.8-14.3,39.3-17.1,60c-2.9,17.2-1.6,34.6-2,52c-0.1,26.6-0.1,53.3-0.1,79.9
			c-0.1,12.4,0.5,24.8-1.3,37.1c-2.2,18.3-8.6,35.6-14.9,52.7c-5.8,16.1-11.6,32.2-17.4,48.3c-8.3,23.8-18.3,47.2-23.4,72
			c-2.6,11.5-3.8,23.3-5.2,35c-4.4,37.7-8.7,75.4-13.1,113.1c-2.6,25.3-6.8,50.4-6.8,75.9c0.1,13,1.2,26,2.2,39
			c1,12.3,1.4,24.8,3.9,36.9c2.9,16.3,8.7,31.9,15,47.1c9,22.6,18,45.2,27.5,67.6c16.4,38.5,33.2,77,49.7,115.5
			c7.5,16.8,14,34.2,19.2,51.9c11.4,40.5,22.4,81.2,33.9,121.7c5.6,20,8.9,40.5,10.1,61.2c0.8,15.6,2.7,31.1,2.9,46.7
			c-1.3,9.7-0.3,19.6-0.8,29.4c-1-0.4-1.8-1.9-3-1.5c-4.1,1.3-8.7,0.4-12.4,2.9c-5.2,0.4-10.6-0.7-15.7,0.8
			c-1.5,0.4-3.1,0.3-4.7,0.3c-0.6-1.1-1.1-2.2-1.7-3.3c3.7-26.1-0.2-52.7-8.9-77.4c-6.7-18.2-14.9-35.9-22-54
			c-6.3-16.6-9.9-34.1-10.6-51.8c-0.3-11.6-1-23.1-1.4-34.7c-1.1-19.8-10.6-38.2-23-53.3c-12.1-14.5-24.5-28.9-36.6-43.5
			c-11.9-14-23.7-28.2-36.2-41.7c-15.7-17.3-30.7-36.6-36.3-59.7c-4.2-16.9-14.2-31.7-25.8-44.3c-7.9-8.7-16.3-17-24-25.9
			c-9.9-14.2-19.4-28.6-29.1-42.9c-8.4-13.2-19.6-24.5-31.5-34.6c-6.4-5.4-13.4-10.3-20.9-14.1c-10.7-5.6-21.3-11.4-31.9-17.1
			c-9.8-5.1-18.7-11.8-27.2-18.8c-10.2-8.8-20.2-18.1-28.5-28.8c-8-10.3-13.7-23.4-11.9-36.7c0.9-8.8,5.3-16.6,9.3-24.4
			c11.8-23,28.9-42.8,47.3-60.8c14.3-14.1,28.5-28.7,38.8-46.2c7.3-12.4,10.5-26.6,13.2-40.5c3-18.8,6.6-37.9,3.2-56.9
			c-0.5-2-1-4.2-2.5-5.6c-3.2-0.4-6.4-0.5-9.6,0.1c-4.1,2.2-7.8,5-11,8.3c-4.8,5.6-7.3,12.7-10.8,19.1
			c-6.9,13.5-13.3,27.2-20.6,40.5c-6.9,12.1-15,23.5-23.8,34.3c-9.5,11.7-20.2,22.5-30,33.9c-12.3,14.5-23.2,30.3-31.1,47.6
			c-6.4,13.9-11.8,28.3-16,43c-2.9,11.3-6.7,22.7-5.8,34.5c1.1,15,7.2,29.8,17.4,40.9c8.7,9.6,18,18.8,28.2,26.9
			c6.8,5.6,14.5,10,21.4,15.6c13.3,10.6,25.4,22.7,36.2,35.8c13.1,17.1,27.3,33.3,42.2,48.7c20.5,20.5,41,41,61.5,61.5
			c6,5.7,11.2,12.5,18.6,16.5c2.4,10.4,4.8,20.8,7.3,31.2c6.2,24.5,23.2,44.3,40.9,61.5c14.3,14.9,27.4,31,38.4,48.5
			c8.3,13.4,16.5,26.9,24.7,40.3c10.5,17.4,21.9,34.3,30,53c7.7,16.5,12.2,34.3,17.8,51.6c7.1,22.4,14.3,44.9,21.4,67.4
			c3.7,11.7,7.4,23.4,12.3,34.7c4.3,10,8.5,20,12.4,30.2c-0.9,1.1-1.8,2.2-2.7,3.3c-2.7-2.3-5.8,0.3-8.8,0c-10.7-0.1-21.4,0-32.2,0
			c-5.9,0.2-11.9-0.7-17.6,1.2c-18.4-29.7-41.9-55.8-66.7-80.3c-24.8-24.5-52.4-45.8-79.7-67.4c-6.3-4-13.1-7.2-20.1-9.8
			c-13.4-4.3-27.5-6-40.8-10.7c7.9,13.4,13.8,28,22.5,40.9c4.4,8.8,12,15.2,18.8,22.2c12,11.4,24.8,22.1,38.1,32
			c14,10,26.3,22.4,36.7,36.1c7.2,9.3,12,20.1,17.4,30.4c-1.7,2.2-1,5.2-1.1,7.8c-1.2-0.4-2.4-0.9-3.4-1.5c-2.4,1-5,1.5-7.3-0.2
			c-0.9,0.7-1.7,1.4-2.5,2.2c-3.6,0.3-7.2,1.1-10.8,1.9c-7.6,3.9-16.9,2.8-24.3,7.1c-1.5,0-3,0-4.5,0c-0.8,0.6-1.6,1.2-2.3,1.9
			c-3.9,0-6.8,3.2-10.6,3.4c-2.2,0.2-3.9,1.5-5.6,2.7c-1.5,0-2.9,0-4.4,0.1c-0.8,0.7-1.7,1.3-2.5,2c-1.8,0-3.6-0.1-5.4-0.1
			c-0.4,0.5-1.2,1.5-1.5,2c-4.8-0.2-9.3,1.8-12.7,5c-3.1-0.5-6.1-1.6-9.2-2.1c-17.5-20-36.2-39.1-57-55.8
			c-15.6-12.9-30-27.6-41.7-44.2c-10-15.1-19.6-30.5-29.5-45.6c-19.3-30.5-41.6-58.9-62.5-88.3c-22.8-31.6-45.7-63.1-68.4-94.7
			c-11.3-15.5-20.3-32.9-24.9-51.6c-2.1-9.3-3.7-18.7-5.7-28c-2.8-11.4-6.1-22.6-8.5-34.1c-3.2-14.2-0.5-28.7-0.5-43
			c-0.1-11.3,2.5-22.6,1.2-34c-0.8-12-3.9-23.8-8.6-34.9c-4.5-10.6-9.8-20.8-13.6-31.6c-5.2-14.3-8.5-29.3-9.6-44.5
			c-1.2-15-2.8-30-2.7-45c-0.3-16,1.4-32,2.6-48c1.7-20.3,3.4-40.6,5-60.8c1-12.1,1.7-24.2,4-36.2c2.1-13,7.4-25.1,11.7-37.5
			c3.7-10.1,6.7-20.5,10.2-30.7c6.3-19.5,11.3-39.7,21.2-57.9c7.4-14.9,17.6-28.2,27.1-41.8c11-16,20.6-32.9,28.6-50.4
			c8.9-18.4,16-37.7,20.4-57.6c4.2-20.2,8.3-40.4,12.5-60.6c4.4-20.3,10.9-40.1,18.8-59.3c8.6-21.2,16.5-42.6,26.4-63.3
			c9-19,19.5-37.2,29.5-55.7c10.2-18.8,20.2-37.8,29.7-57c4.1-8.3,8.5-16.4,11.7-25.1c3-7.6,5-15.6,6.6-23.7l2.2,0.4
			C576.5,220.9,576.5,219.1,576.4,218.2 M771.6,317c-1.7,5.6-4,11.1-5.1,16.9c-1.9,11.5-5.4,22.6-6.7,34.2
			c-4.5,36.9-8.9,73.9-13.4,110.9c-1.7,14.8-3.3,29.8-7.5,44.2c-5.3,19.5-14.7,37.5-22.8,55.9c-7.7,17.6-16.6,34.7-22.3,53.1
			c-5.5,16.5-8.4,33.7-10.9,50.8c-1.6,14.7-2.7,29.5-1.5,44.2c0.5,15.6,1.3,31.3,5,46.5c3.7,17.1,10.8,33.1,16.9,49.4
			c3.6,9.8,8,19.4,12,29c3,6.1,6.5,11.9,10.2,17.6c0.9,1.3,1.6,2.9,3.1,3.5c3.6-14.4,2.8-29.4,3.2-44.2c-0.2-17-0.8-34.1-2.9-51
			c-2.2-21.8-2-43.9,0.6-65.7c0.8-7.9,1.3-15.9,2.4-23.8c2.7-20.1,9.7-39.3,18.3-57.6c14.3-31.1,24.7-63.8,34.3-96.6
			c6.2-21.8,10.6-44.1,15.5-66.2c4.5-19.9,5.4-40.7,2.3-60.9c-2.5-17.8-4.6-35.6-7.9-53.2c-3.3-20.6-6.9-41.3-14.2-60.9
			C776.3,300.5,774.3,308.9,771.6,317 M386.3,1076.6c9.6,21.1,22.1,40.7,35,59.9c4.5,7.1,9.6,13.8,15.3,20
			c11.4,12.7,23.9,24.4,38.2,33.7c12.4,9.1,23,20.5,31.9,33c6.2,8.6,9.7,18.7,13.8,28.3c6.9,16.7,14.3,33.2,19.5,50.5
			c7.4,23.7,10.5,48.4,16.2,72.5c4,20,7.3,40.5,16.4,58.9c2.8,5.5,4.9,11.7,9.8,15.7c0.9-14.4,3-28.7,3.1-43.1
			c1.5-39.6-4-79.2-12.9-117.8c-4.5-21-10-41.9-16.8-62.3c-5.8-17.1-11.3-34.3-17.2-51.4c-5.8-13.5-16.3-24.3-27.3-33.8
			c-7.1-6.5-16.3-9.7-24.6-14.3c-17.1-8.5-33.7-18.1-50.9-26.3c-10.7-5.5-21.3-11.3-32.1-16.8C398,1081,392.2,1078.7,386.3,1076.6z"
			/>
		<linearGradient id="SVGID_6_" gradientUnits="userSpaceOnUse" x1="1105.7625" y1="1612.9" x2="1105.7625" y2="253.4065">
			<stop  offset="0" style="stop-color:#F8DEBF"/>
			<stop  offset="3.135234e-003" style="stop-color:#F7DCBB"/>
			<stop  offset="3.324690e-002" style="stop-color:#F1C895"/>
			<stop  offset="6.645069e-002" style="stop-color:#ECB673"/>
			<stop  offset="0.103" style="stop-color:#E7A856"/>
			<stop  offset="0.1436" style="stop-color:#E39C3F"/>
			<stop  offset="0.1903" style="stop-color:#E1922E"/>
			<stop  offset="0.2465" style="stop-color:#DE8C21"/>
			<stop  offset="0.3221" style="stop-color:#DD881A"/>
			<stop  offset="0.5" style="stop-color:#DD8718"/>
			<stop  offset="0.6779" style="stop-color:#DD881A"/>
			<stop  offset="0.7535" style="stop-color:#DE8C21"/>
			<stop  offset="0.8097" style="stop-color:#E1922E"/>
			<stop  offset="0.8564" style="stop-color:#E39C3F"/>
			<stop  offset="0.897" style="stop-color:#E7A856"/>
			<stop  offset="0.9335" style="stop-color:#ECB673"/>
			<stop  offset="0.9668" style="stop-color:#F1C895"/>
			<stop  offset="0.9969" style="stop-color:#F7DCBB"/>
			<stop  offset="1" style="stop-color:#F8DEBF"/>
		</linearGradient>
		<path fill="url(#SVGID_6_)" d="M1125.5,253.4c2.7-0.1,5.3,0.5,7.8,1.4c5,9.6,9.9,19.3,15,28.8c7.9,14.8,17,29.1,23.1,44.8
			c8.4,20.5,12.3,42.6,13.5,64.6c0.9,11.3-0.2,22.5-0.7,33.8c-0.9,13.7-0.9,27.5-1.6,41.2c0.3,17.2-0.9,34.5,1.6,51.6
			c2.1,16.2,7.5,31.7,13.3,46.8c7.8,19.9,12.4,41.2,12.1,62.6c-0.3,13.1,3.6,26.1,9.8,37.6c6.8,12.9,16.9,23.6,26.5,34.4
			c13.6,15.4,27.9,30.2,42.2,44.9c12.1,11.8,23.3,25.1,29.9,40.9c3.7,8.5,4.9,17.8,7.4,26.7c1.7,6.3,4.5,12.1,7,18.1
			c3.2,7.4,1.3,15.6,2.1,23.4c1.8,25.3,3.3,50.7,5.3,76c1.1,18.3-3.5,36.6-12.1,52.7c-15.3,27.7-30.3,55.6-45.9,83.1
			c-13.8,15.9-27.2,32.1-40.7,48.3c-22.4,26.6-43.6,54.2-63.2,82.9c-10.5,15.9-18.7,33.4-23.4,51.9c-5.8,22.3-13.8,44.2-16,67.3
			c-1.7,14.9-0.7,29.9-0.2,44.9c0.2,11,0.6,22,1.1,33c0,12.8,1.1,25.6,4.2,38c3.9,17.6,12.1,33.7,19.1,50.3
			c9.9,22.8,19.7,45.7,29.8,68.3c6.9,15.8,14.3,31.4,21.3,47.2c-1.2,1.6-1.3,3.6-1.3,5.5c0.7,0.7,1.4,1.4,2.2,2.1
			c0,1.1,0.1,2.1,0.1,3.2c-0.5,0-1.5-0.1-2-0.2c-0.6-0.7-1.2-1.3-1.8-1.9c-0.8-0.1-1.5-0.2-2.2-0.2c0-0.7-0.1-2.2-0.1-2.9
			c-1.6,0-3.1,0-4.7,0c-0.3,0.6-1,1.7-1.4,2.3c-5-1.4-10.3-1.7-15.5-1.1c-1.6,0.2-3.3,0.8-4.9,0.4c-6.9-1.5-14.2,0.6-21.1-1.5
			c-4.6,1.7-9.2-0.7-14-0.2c-4.9-1.7-10.1-0.1-14.9-1.6c-2.4-1-4.7,1.1-7.1,0.5c-4.5-1.3-9.3-0.7-13.9-0.6c-5.2,2.7-10.8-1.2-16.2,0
			c-5.9,1.6-12.1,0.3-18,1.8c-3.3-1.7-6.7,0.3-10-0.9c-2.1,0.1-3.9,1.3-5.8,2.1c-2.7-2.2-5.9,0.6-8.9-0.1c-7.3-0.8-14.3,2-21.5,2.1
			c-4.1,1.2-8.3,0.8-12.4,0.8c-1-2.2-2.3-4.3-3.8-6.1c-1.7,2.4-3.5,4.7-5.1,7.1c-0.7,0.1-2.2,0.2-2.9,0.2c-0.5-1.4-0.8-2.8-1.1-4.2
			c-1,0-1.9,0-2.8,0c0,1.6,0.1,3.2,0.1,4.8c-1.2-1.2-2.4-2.4-3.9-3.1c0,2.1-0.6,4-1.9,5.7c0.6-3.1-2.4-6.3-0.2-9
			c-0.3-0.4-1-1.2-1.4-1.6c2.7-10.2,6.2-20.1,8.9-30.3c4.9-18.2,5.8-37.3,3-55.9c-3.6-25.8-5-52.2-12.8-77.2
			c-6-19.3-14.3-37.8-21.6-56.6c-8.5-20.2-13.3-42.2-12.7-64.2c0.1-13.7,0-27.3,0.1-41c-0.1-12.3-2.5-24.5-7.3-35.8
			c-5.8-14.6-15.5-27-24-40.1c-10.9-16.6-23-32.7-30.3-51.3c-7.5-17.4-9.4-36.4-13.2-54.8c-5.3-26.6-9.6-53.5-11.2-80.6
			c-2.5-26.2-3.8-52.7-0.9-79c1.5-20.7,4.3-41.4,9.1-61.6c4.6-19.2,9.6-38.3,14.2-57.4c3.4-15.3,5.4-30.9,5.8-46.5
			c0.1-30,0-60,0.1-90c0.3-25,4.7-49.5,9-74c5-29.7,10.1-59.4,15.1-89c2.7-16.2,6.1-32.4,5.8-48.9c0.3-19.9-4.4-39.4-6.8-59.1
			c-2.1-16.6,1.7-33.6,8.9-48.6c5.5-10.8,11.4-21.3,17.1-32c7.3-13.5,12.3-28.1,15.1-43.1c1-0.6,2-1.3,3.1-2
			c-0.1-1.6-0.2-3.3-0.3-4.9c0.5,0,1.5-0.1,1.9-0.1c0.1,2,0.6,4,1.7,5.7c1-1.8,1.6-3.8,1.7-5.9c2.3,1.1,4.8,1.8,7.2,0.7
			c7.4-1,14.9,0.3,22.2-0.6c5.5-3.6,12.4-0.1,18.1-2.9c3.5-1.2,7.1-1.9,10.8-1.9c4.1,0,7.8-2.1,11.9-1.9c7.6,0.1,14.7-4.1,22.4-2.9
			c0.8-0.7,1.5-1.4,2.3-2.1c4.2,0.4,8.2-1.1,12.3-1.3c1.4-1.2,2.7-2.9,4.8-2.7c3.9,0.2,7.7-1.3,11.7-1.1c0.8-0.7,1.5-1.3,2.3-2
			c8,1,15-4.6,23-4C1124.3,254.8,1124.9,254.1,1125.5,253.4 M1052.8,424.8c-4.9,13.5-9.7,27.2-12.7,41.3c-5.4,36.5-3.3,73.5,0.2,110
			c1.7,21.9,5.8,43.7,11.9,64.8c6.2,23.9,13.9,47.3,23.3,70.1c3,7,5.2,14.3,5.3,21.9c0.6,14-4.3,27.6-11.1,39.6
			c-8.1,14.5-14.5,29.8-21.1,45.1c-5.3,12.7-7.8,26.8-6.2,40.5c0.8,9.2,4.2,17.9,6.7,26.8c4,12.8,8.5,25.6,9.6,39.1
			c1.6,11.9,0.8,24-1,35.8c-1.7,13.2-5.2,26.2-10.1,38.6c-6.4,16.3-15.9,31-24.1,46.3c-10.2,19-22,37.2-29.5,57.5
			c-7.5,20-13,41.4-10.4,62.9c1,12.3,5.2,24.1,8.8,35.8c16.1,53.4,34.8,106.1,51.6,159.3c2.8,8,4.7,16.3,8.9,23.7
			c3-3.8,5.8-7.7,7.6-12.2c3.2-9.2,5.4-18.8,5.7-28.6c0.3-14.1-0.9-28.1-1.7-42.1c-1.9-26.5-3.5-53-5.4-79.5
			c-0.7-11.1-1.8-22.3-1.5-33.4c0.2-24.1,5.8-47.8,11.2-71.1c6.1-23.6,12.2-47.5,22.5-69.8c8.3-18.8,19.8-36,29.7-54
			c9.8-17.5,17.8-35.9,24.3-54.8c5.8-17,13-33.6,16.4-51.3c2.4-11.5,3.4-23.2,3.2-34.8c-0.2-16.2,0.6-32.4-1.1-48.5
			c-1.8-21.5-7.4-42.5-11.7-63.6c-4.6-22-12.7-43-23-62.9c-9.5-18.4-16.1-38.5-18-59.2c-1.2-13.7-2.4-27.3-4.6-40.8
			c-3.2-20.5-8.4-40.7-13-61c-6-25.5-16.2-49.6-23.4-74.7c-3.3-9.8-6.6-19.7-12.2-28.5C1055.4,416.5,1054.4,420.8,1052.8,424.8z"/>
	</g>
</g>
</svg>
